<svg width="1920" height="2095" viewBox="0 0 1920 2095" fill="none" xmlns="http://www.w3.org/2000/svg">
<g opacity="0.1">
<mask id="mask0_2353_1126" style="mask-type:luminance" maskUnits="userSpaceOnUse" x="-2024" y="-1549" width="4698" height="3980">
<path d="M2673.52 -22.8972L-1006.6 -1549L-2024 904.412L1656.12 2430.51L2673.52 -22.8972Z" fill="white"/>
</mask>
<g mask="url(#mask0_2353_1126)">
<path d="M-2977.52 1331.7C-2772.09 896.097 -2350.7 580.241 -1875.64 501.573C-1634.8 461.633 -1384.2 483.965 -1153.05 561.851C-890.033 650.434 -720.034 825.521 -493.821 972.522C-317.694 1086.89 -123.142 1177.63 87.2862 1202.36C304.79 1228.22 530.061 1180.75 718.833 1069.62C1033.64 884.238 1141.38 529.965 1397.68 285.462C1629.45 64.5713 1968.38 -38.5629 2283.92 16.0936C2599.46 70.75 2884.06 281.499 3028.12 567.67" stroke="#8FB15D" stroke-width="3.32" stroke-miterlimit="10"/>
<path d="M-3010.59 1318.7C-2808.47 886.76 -2392.52 571.884 -1922.79 491.36C-1679.77 448.735 -1426.39 470.424 -1192.91 549.634C-1123.53 573.012 -1060.4 602.786 -1000.89 636.09C-833.762 730.556 -696.254 856.586 -528.714 967.396C-495.758 989.329 -461.986 1010.16 -427.833 1030.08C-278.057 1116.99 -115.802 1182.47 57.0761 1202.41C152.072 1213.41 248.296 1210.18 342.785 1192.94C465.945 1170.69 584.775 1125.08 692.618 1060.9C708.334 1051.6 723.564 1041.75 738.487 1031.76C985.008 863.71 1111.63 610.359 1300.77 411.683C1330.01 381.038 1360.66 351.336 1393.38 323.572C1527.8 210.031 1694.72 135.126 1872.31 103.822C2003.44 80.5656 2141.04 81.5595 2275.37 107.791C2366.7 125.897 2456.34 155.881 2541.12 194.991C2749.34 291.762 2930.05 443.616 3032.15 624.69" stroke="#8FB15D" stroke-width="3.32" stroke-miterlimit="10"/>
<path d="M-3043.35 1305.84C-2844.24 877.679 -2433.75 565.571 -1969.65 481.277C-1724.5 437.014 -1468.27 457.013 -1232.34 537.24C-1162.47 561.179 -1098.6 590.9 -1038.43 625.199C-869.711 721.042 -730.999 849.369 -563.174 962.093C-530.039 984.46 -496.215 1006.03 -461.882 1026.38C-311.208 1115.46 -147.189 1182.76 26.9911 1202.16C122.728 1213.1 220.074 1208.9 315.326 1189.82C439.376 1165.43 557.87 1117.16 666.528 1051.88C682.371 1042.28 697.908 1032.55 712.958 1022.25C963.204 852.155 1102.12 616.839 1295.55 438.994C1325.62 411.566 1356.65 385.26 1389.76 360.892C1525.31 261.114 1690.46 199.135 1866.38 177.922C1996.55 162.175 2133.22 168.891 2267.5 198.698C2358.99 219.025 2449.3 250.005 2535.37 288.576C2746.76 383.784 2935.16 522.294 3037.05 681.354" stroke="#8FB15D" stroke-width="3.32" stroke-miterlimit="10"/>
<path d="M-3076.43 1292.84C-2880.63 868.338 -2475.52 557.95 -2016.82 471.06C-1769.61 424.418 -1510.15 443.594 -1271.77 524.839C-1201.29 549.033 -1136.63 579.442 -1075.84 613.995C-905.539 711.214 -765.623 841.837 -597.334 956.911C-564.019 979.712 -530.016 1001.72 -495.504 1022.5C-343.753 1114.18 -178.147 1182.86 -2.4866 1202.15C94.1179 1212.74 192.024 1208.05 288.653 1187.38C413.466 1161.15 532.057 1110.05 641.352 1043.24C657.195 1033.63 672.859 1023.59 687.909 1013.3C941.88 841.154 1092.6 623.312 1290.69 467.167C1321.14 443.135 1352.57 420.225 1386.19 398.946C1522.99 312.625 1686.25 263.877 1860.81 252.882C1989.71 244.518 2125.32 257.263 2259.68 290.339C2351.33 312.888 2441.99 344.735 2529.68 382.895C2744.23 476.54 2939.89 601.885 3041.99 738.752" stroke="#8FB15D" stroke-width="3.32" stroke-miterlimit="10"/>
<path d="M-3109.37 1279.54C-2916.88 858.699 -2517.16 550.03 -2063.85 460.545C-1814.57 411.525 -1552.08 429.444 -1311.5 512.319C-1240.41 536.767 -1175.13 567.431 -1113.86 602.546C-941.969 701.141 -800.849 834.06 -632.277 951.049C-598.782 974.283 -564.726 997.032 -529.728 1018.37C-377.079 1112.23 -210.016 1182.58 -32.4398 1201.59C64.9051 1212.13 163.934 1206.47 261.198 1184.27C386.902 1155.89 505.157 1102.13 615.266 1034.22C631.237 1024.31 646.9 1014.27 662.384 1003.8C920.081 829.6 1082.78 629.666 1285.35 494.787C1316.63 473.972 1348.44 454.457 1382.15 436.447C1520.06 363.889 1681.56 328.067 1854.45 327.163C1982.09 326.181 2116.94 345.082 2251.39 381.427C2343.49 406.325 2434.52 439.039 2523.51 476.661C2741.22 568.743 2944.57 680.744 3046.59 795.29" stroke="#8FB15D" stroke-width="3.32" stroke-miterlimit="10"/>
<path d="M-3142.13 1266.67C-2952.65 849.614 -2558.62 542.539 -2110.7 450.458C-1859.36 399.059 -1593.96 416.029 -1350.93 499.921C-1279.53 524.496 -1213.33 555.542 -1151.27 591.344C-977.793 691.316 -835.468 826.532 -666.432 945.869C-632.758 969.538 -598.523 992.72 -563.472 1014.8C-410.053 1111.13 -241.097 1182.99 -62.3471 1201.77C35.8656 1211.94 135.455 1205.8 233.916 1181.58C360.383 1151.36 478.429 1094.64 589.354 1025.63C605.451 1015.41 621.422 1005.5 637.033 994.722C898.454 818.474 1073.26 636.141 1280.19 522.835C1312.16 505.543 1344.49 489.118 1378.59 474.504C1517.62 415.709 1677.35 392.813 1848.58 401.999C1974.82 408.707 2109.04 433.457 2243.57 473.07C2335.84 500.19 2427.53 533.899 2517.82 570.982C2738.7 661.501 2949.43 760.031 3051.23 852.564" stroke="#8FB15D" stroke-width="3.32" stroke-miterlimit="10"/>
<path d="M-3175.19 1253.68C-2989.03 840.277 -2600.26 534.615 -2157.86 440.245C-1904.46 386.468 -1635.84 402.615 -1390.78 487.704C-1318.77 512.534 -1252.09 544.14 -1189.54 580.504C-1014.48 681.852 -870.95 819.364 -701.757 940.923C-668.03 965.332 -633.488 988.641 -598.258 1011.16C-443.635 1109.78 -273.22 1183.33 -92.862 1201.69C6.09119 1211.82 106.803 1204.7 205.9 1178.94C332.95 1146.45 450.966 1087.2 563.14 1016.91C579.545 1006.82 595.463 996.171 610.947 985.7C876.093 807.402 1062.58 642.85 1274.42 550.631C1306.9 536.427 1339.93 523.526 1373.98 512.487C1514.26 467.149 1672.1 457.485 1841.66 476.761C1966.95 490.979 2100.11 521.758 2234.71 564.64C2327.14 593.982 2419.49 628.686 2510.9 664.796C2735.08 753.445 2953.37 838.938 3054.95 909.457" stroke="#8FB15D" stroke-width="3.32" stroke-miterlimit="10"/>
<path d="M-3208.27 1240.68C-3025.11 831.068 -2642.34 526.872 -2205.03 430.033C-1949.43 373.57 -1678.03 389.074 -1430.52 475.181C-1358.03 500.572 -1290.6 532.126 -1227.26 569.177C-1050.61 671.902 -906.186 811.584 -736.402 935.185C-702.496 960.027 -667.902 984.077 -632.492 1007.03C-476.971 1107.82 -304.791 1183.18 -122.825 1201.13C-23.0039 1210.9 78.396 1202.99 178.742 1175.95C306.683 1141.31 424.362 1079.41 537.351 1008.02C553.883 997.621 569.801 986.97 585.719 976.319C854.463 796.279 1052.75 649.2 1269.38 578.374C1302.56 567.694 1335.79 557.755 1370.23 550.112C1511.64 518.537 1667.71 521.798 1835.9 551.293C1959.93 572.893 2092.03 609.701 2227.02 655.979C2319.48 687.848 2412.62 723.241 2505.34 758.813C2732.67 845.899 2958.53 918.354 3060.03 966.552" stroke="#8FB15D" stroke-width="3.32" stroke-miterlimit="10"/>
<path d="M-3240.9 1227.51C-3060.93 821.245 -2683.55 518.769 -2251.88 419.948C-1994.53 360.98 -1719.48 375.481 -1469.64 462.912C-1396.53 488.557 -1328.62 520.672 -1264.36 558.106C-1086.13 662.206 -940.496 804.185 -770.248 930.134C-736.163 955.411 -701.389 979.895 -665.8 1003.28C-509.509 1106.55 -335.743 1183.28 -152.296 1201.13C-51.7344 1210.84 50.6606 1202.27 151.897 1173.08C280.294 1136.48 398.198 1071.43 512.003 998.943C528.534 988.546 544.886 977.716 560.804 967.065C833.274 784.976 1043.36 655.371 1264.96 606.372C1298.65 598.781 1332.58 592.365 1367.41 588.118C1510.06 570.001 1664.24 586.494 1830.77 626.079C1953.53 655.062 2084.87 698.026 2219.95 747.573C2312.56 781.664 2406.37 818.051 2500.39 853.085C2730.89 938.607 2964.13 997.591 3065.72 1023.9" stroke="#8FB15D" stroke-width="3.32" stroke-miterlimit="10"/>
<path d="M-3273.97 1214.51C-3097.13 812.342 -2725.49 510.718 -2298.74 409.862C-2039.19 348.208 -1761.36 362.067 -1509.2 450.822C-1435.47 476.721 -1366.95 509.091 -1302.2 547.085C-1122.38 652.562 -975.547 796.837 -805.015 924.702C-770.75 950.412 -735.924 975.636 -700.155 999.454C-542.66 1105.02 -367.563 1183.74 -182.38 1200.87C-80.9511 1210.23 22.1322 1200.86 124.311 1170.27C253.598 1131.51 371.165 1063.82 485.786 990.227C502.444 979.524 518.796 968.693 535.148 957.863C811.343 773.724 1032.93 661.466 1259.49 634.294C1293.88 630.227 1328.33 626.9 1363.24 625.922C1507.01 621.567 1659.42 650.986 1824.28 700.661C1945.78 737.027 2076.36 786.148 2211.52 838.963C2304.29 875.276 2398.77 912.658 2494.09 947.153C2727.75 1031.11 2968.68 1076.75 3069.75 1080.92" stroke="#8FB15D" stroke-width="3.32" stroke-miterlimit="10"/>
<path d="M-3306.73 1201.65C-3133.08 802.825 -2766.82 502.922 -2345.89 399.649C-2084.28 335.617 -1803.54 348.526 -1548.93 438.299C-1474.9 464.325 -1405.27 497.51 -1339.91 535.758C-1158.51 642.612 -1010.47 789.183 -839.472 919.396C-805.155 945.848 -770.022 971.199 -734.201 995.758C-575.808 1103.49 -398.946 1184.02 -212.155 1200.74C-109.985 1210.05 -5.90724 1200.01 97.3415 1167.71C227.392 1127.11 345.056 1056.58 460.185 981.766C476.971 970.756 493.323 959.925 509.675 949.095C789.595 762.907 1022.86 668.43 1254.2 662.651C1289.11 661.673 1324.25 661.869 1359.55 664.286C1504.45 673.696 1655.09 716.04 1818.15 776.112C1938.26 820.168 2068.22 875.137 2203.46 931.222C2296.38 969.756 2391.53 1008.13 2488.15 1042.09C2724.98 1124.49 2973.16 1156.96 3074.44 1138.94" stroke="#8FB15D" stroke-width="3.32" stroke-miterlimit="10"/>
<path d="M-3339.8 1188.65C-3169.46 793.49 -2808.65 494.566 -2393.06 389.438C-2129.25 322.721 -1845.42 335.113 -1588.66 425.776C-1514.02 452.057 -1443.78 485.496 -1378.06 524.613C-1195.07 632.843 -1045.83 781.71 -874.547 913.838C-840.051 940.723 -804.866 966.815 -768.738 991.501C-609.269 1101.84 -431.127 1183.62 -242.855 1200.23C-139.945 1209.48 -35.0514 1198.35 69.2671 1164.34C200.207 1121.59 317.536 1048.41 433.607 972.184C450.393 961.174 467.179 950.164 483.658 939.027C767.303 750.789 1012.37 673.786 1248.5 689.401C1284.1 691.945 1319.33 695.41 1355.14 700.917C1501.28 723.783 1650.04 779.36 1811.74 849.65C1930.89 901.215 2059.78 962.214 2195.23 1021.26C2288.31 1062.02 2384 1101.69 2482.17 1134.5C2722.16 1215.33 2978.04 1234.46 3079.11 1194.43" stroke="#8FB15D" stroke-width="3.32" stroke-miterlimit="10"/>
<path d="M-3372.87 1175.66C-3205.54 784.28 -2850.6 486.515 -2440.22 379.225C-2174.53 309.696 -1887.49 321.266 -1628.22 413.686C-1553.09 440.528 -1482.24 474.222 -1415.59 513.719C-1231.33 623.199 -1080.45 774.183 -908.83 908.967C-874.154 936.286 -838.79 962.812 -802.61 988.238C-642.243 1100.75 -462.336 1184.34 -272.456 1200.54C-168.678 1209.43 -62.9167 1197.94 42.1648 1162.08C173.868 1117.5 290.987 1041.35 407.874 964.029C424.787 952.712 441.573 941.702 458.486 930.386C745.856 740.099 1002.42 680.443 1243.51 717.884C1279.63 723.518 1315.55 730.506 1351.45 739.282C1498.71 775.911 1645.7 844.413 1805.73 924.794C1923.62 983.742 2051.45 1050.77 2186.98 1113.08C2280.22 1156.06 2376.57 1196.74 2476.05 1229C2719.2 1308.27 2982.77 1314.06 3083.62 1252.01" stroke="#8FB15D" stroke-width="3.32" stroke-miterlimit="10"/>
<path d="M-3405.51 1162.49C-3241.49 774.764 -2891.98 477.979 -2486.64 368.961C-2218.89 297.053 -1928.93 307.673 -1667.21 401.111C-1591.47 428.207 -1520 462.155 -1452.57 502.341C-1266.71 613.197 -1114.63 766.478 -942.857 903.483C-908.001 931.236 -872.457 958.195 -836.098 984.056C-674.833 1098.73 -493.161 1184.13 -301.673 1199.93C-197.154 1208.76 -90.5776 1196.17 15.7532 1159.04C148.04 1112.18 265.129 1033.51 382.959 954.776C399.872 943.459 416.785 932.143 434.004 920.953C725.1 728.617 993.591 686.128 1239.22 745.576C1276.16 754.426 1312.47 764.81 1348.75 776.982C1497.27 827.068 1642.36 908.802 1800.73 999.273C1917.35 1065.6 2044.42 1138.79 2180.04 1204.37C2273.43 1249.57 2370.45 1291.24 2471.22 1322.97C2717.55 1400.67 2988.5 1392.99 3089.26 1308.62" stroke="#8FB15D" stroke-width="3.32" stroke-miterlimit="10"/>
<path d="M-3438.57 1149.49C-3277.56 765.555 -2933.8 469.622 -2533.8 358.749C-2264.16 284.028 -1970.81 294.259 -1706.94 388.588C-1630.59 415.938 -1558.51 450.14 -1490.59 490.887C-1303.15 603.119 -1149.86 758.697 -977.495 897.744C-942.46 925.931 -906.863 953.631 -870.324 979.925C-707.983 1097.2 -524.725 1183.98 -332.062 1199.54C-226.676 1208.02 -119.232 1195.07 -12.0109 1155.79C121.219 1107.53 237.919 1025.46 356.564 945.626C373.604 934.003 390.951 922.507 407.864 911.19C702.684 716.805 982.671 691.662 1233.26 772.937C1270.9 785.311 1307.73 798.784 1344.09 814.225C1493.73 878.074 1637.06 972.733 1793.75 1073.3C1909.11 1147.01 2035.43 1226.35 2171.13 1295.2C2264.55 1342.93 2362.36 1385.28 2464.44 1416.47C2714.23 1492.74 2992.44 1471.9 3093.11 1365.21" stroke="#8FB15D" stroke-width="3.32" stroke-miterlimit="10"/>
<path d="M-3471.34 1136.62C-3313.64 756.344 -2975.62 461.264 -2580.66 348.662C-2309.01 270.822 -2012.69 280.844 -1746.5 376.497C-1669.83 403.975 -1596.96 438.865 -1528.25 480.3C-1339.22 593.909 -1184.73 751.782 -1012.21 893.051C-977.122 921.978 -941.219 949.806 -904.628 976.841C-741.389 1096.29 -556.673 1184.75 -362.095 1200.03C-255.968 1208.45 -147.529 1194.84 -39.5451 1153.72C94.5747 1103.31 211.066 1018.27 330.399 937.65C347.745 926.154 364.913 914.224 382.132 903.035C680.678 706.6 972.595 698.625 1227.85 801.6C1266 817.063 1303.21 833.932 1339.97 852.768C1490.86 930.074 1632.29 1037.97 1787.32 1148.62C1901.71 1229.84 2026.97 1315.21 2162.75 1387.33C2256.33 1437.28 2354.81 1480.63 2458.01 1510.85C2710.96 1585.56 2996.55 1551.24 3097.32 1422.66" stroke="#8FB15D" stroke-width="3.32" stroke-miterlimit="10"/>
<path d="M-3504.41 1123.63C-3350.02 747.007 -3017.45 452.906 -2627.82 338.45C-2354.28 257.797 -2054.57 267.431 -1785.92 364.1C-1708.65 391.833 -1635.17 426.977 -1565.96 468.974C-1375.35 583.959 -1219.96 744.002 -1046.55 887.44C-1011.28 916.801 -975.323 945.369 -938.425 972.53C-774.288 1094.15 -587.807 1184.42 -391.748 1199.59C-284.753 1207.66 -175.32 1193.38 -66.393 1150.85C68.4899 1098.6 185.078 1010.73 305.047 928.576C322.521 916.773 339.689 904.843 357.342 893.474C659.613 694.99 963.46 704.182 1223.24 829.163C1262.22 847.843 1299.82 868.108 1336.97 890.341C1488.97 981.41 1628.64 1102.23 1782.31 1223.1C1895.31 1312.01 2019.94 1403.23 2155.8 1478.62C2249.54 1530.79 2348.68 1575.13 2453.18 1604.81C2709.3 1677.96 3002.59 1630.29 3103.13 1479.7" stroke="#8FB15D" stroke-width="3.32" stroke-miterlimit="10"/>
<path d="M-3537.35 1110.33C-3385.97 737.493 -3059.44 444.117 -2674.85 327.932C-2399.12 244.595 -2096.5 253.279 -1825.66 351.579C-1747.89 379.872 -1673.49 415.398 -1603.68 457.649C-1411.48 574.01 -1254.89 736.35 -1081.31 882.01C-1045.86 911.804 -1009.73 940.806 -972.779 968.708C-807.565 1092.93 -619.498 1184.58 -422.138 1199.21C-314.403 1207.23 -204.281 1192.15 -94.1573 1147.6C41.3091 1093.08 157.868 1002.68 278.652 919.428C296.253 907.319 313.727 895.516 331.508 883.841C637.197 683.18 953.154 709.973 1217.6 856.654C1257.09 878.423 1295.39 902.211 1332.61 927.713C1485.43 1032.42 1623.64 1166.29 1775.64 1297.25C1887.38 1393.54 2010.95 1490.79 2147.2 1569.58C2241.09 1623.97 2340.9 1669.31 2446.7 1698.45C2705.99 1770.03 3006.96 1709.02 3106.98 1536.29" stroke="#8FB15D" stroke-width="3.32" stroke-miterlimit="10"/>
<path d="M-3570.1 1097.46C-3422.04 728.282 -3100.95 435.887 -2721.7 317.847C-2444.09 231.697 -2138.38 239.864 -1865.08 339.182C-1786.7 367.73 -1711.69 403.51 -1641.08 446.449C-1447.3 564.187 -1289.5 728.823 -1115.77 876.704C-1080.14 906.933 -1043.95 936.675 -1006.7 964.705C-840.586 1091.1 -651.06 1184.43 -451.785 1198.77C-343.182 1206.43 -232.065 1190.69 -121.306 1144.61C14.9237 1088.25 131.273 994.887 252.872 910.533C270.473 898.423 288.075 886.314 305.856 874.638C615.27 671.928 943.156 715.889 1212.13 884.576C1252.32 909.868 1291.13 936.746 1328.44 965.516C1482.51 1083.68 1618.83 1230.78 1769.16 1371.83C1879.63 1475.51 2002.44 1578.91 2138.78 1660.97C2232.83 1717.58 2333.3 1763.92 2440.4 1792.52C2702.85 1862.54 3011.08 1788.36 3111.32 1593.44" stroke="#8FB15D" stroke-width="3.32" stroke-miterlimit="10"/>
<path d="M-3603.17 1084.47C-3458.12 719.073 -3143.08 427.403 -2768.86 307.634C-2489.55 218.238 -2180.26 226.451 -1904.81 326.659C-1826.13 355.334 -1750.32 391.802 -1679.1 434.995C-1483.73 554.11 -1324.73 721.042 -1150.41 870.965C-1114.6 901.628 -1078.23 931.804 -1040.92 960.574C-874.043 1089.44 -682.625 1184.27 -481.869 1198.52C-372.526 1206.12 -260.721 1189.59 -148.892 1141.8C-11.7719 1083.29 104.241 987.271 226.783 901.511C244.512 889.095 262.419 877.112 280.327 865.13C593.467 660.37 933.717 721.319 1206.79 912.193C1247.8 940.701 1286.57 971.154 1324.7 1003.14C1479.89 1135.07 1614.44 1295.09 1763.1 1446.23C1872.31 1557.3 1994.37 1666.86 2130.79 1752.18C2224.99 1811.01 2326.13 1858.34 2434.54 1886.41C2700.15 1954.86 3016.07 1867.35 3116.09 1650.41" stroke="#8FB15D" stroke-width="3.32" stroke-miterlimit="10"/>
<path d="M-3635.94 1071.6C-3494.2 709.861 -3184.96 418.303 -2815.72 297.547C-2534.57 204.598 -2222.15 213.035 -1944.37 314.567C-1865.08 343.496 -1788.65 380.219 -1716.77 424.407C-1519.81 544.898 -1359.61 714.127 -1185.13 866.272C-1149.27 897.675 -1112.59 927.978 -1075.23 957.489C-907.148 1088.65 -714.399 1185.48 -512.213 1198.87C-402.13 1206.43 -289.202 1188.92 -176.303 1139.42C-38.4206 1079.07 77.3826 980.087 200.74 893.227C218.469 880.811 236.504 868.522 254.718 856.667C571.583 649.858 923.636 728.28 1201.5 940.547C1243.02 972.145 1282.49 1006.12 1320.7 1041.38C1477.14 1186.76 1609.8 1360.02 1757.09 1521.38C1865.35 1639.95 1986.34 1755.54 2122.53 1844C2216.9 1905.06 2318.7 1953.38 2428.54 1980.6C2697.44 2047.19 3020.61 1946.5 3120.42 1707.55" stroke="#8FB15D" stroke-width="3.32" stroke-miterlimit="10"/>
<path d="M-3668.88 1058.3C-3530.14 700.347 -3226.78 409.948 -2862.88 287.337C-2498.99 164.725 -2081.56 212.034 -1754.48 413.083C-1515.01 560.189 -1329.84 779.304 -1109.15 953.487C-848.109 1159.5 -526.577 1282.05 -203.454 1136.42C-44.7763 1064.93 83.7821 942.128 229.498 847.288C549.961 638.736 913.944 734.326 1196.46 968.293C1411.8 1146.72 1570.18 1382.77 1750.91 1596.09C1931.65 1809.41 2150.47 2009.78 2422.54 2074.8C2694.61 2139.82 3025.35 2026.1 3125.2 1764.52" stroke="#8FB15D" stroke-width="3.32" stroke-miterlimit="10"/>
<path d="M-3603.43 1085.08C-3456.96 739.68 -3152.72 467.974 -2791.24 351.189C-2749.76 337.839 -2707.69 326.532 -2665.03 317.266C-2336.24 245.51 -1980.97 293.638 -1694.47 455.58C-1560.7 530.82 -1443.85 627.797 -1328.07 726.487C-1238.89 802.646 -1150.09 879.724 -1055.02 948.62C-797.197 1136.4 -481.334 1244.03 -162.909 1099.32C-6.01867 1027.81 122.749 907.968 268.24 816.27C585.471 614.644 945.056 706.973 1224.12 936.272C1277.21 979.853 1326.68 1026.96 1374.09 1076.46C1516.54 1226.1 1637.45 1397.36 1771.15 1555.96C1801.71 1592.35 1833.26 1628.08 1866.23 1662.96C2024.85 1830.81 2211.58 1975.1 2433.73 2028.76C2701.91 2093.61 3027.09 1985.49 3131.32 1733.28" stroke="#8FB15D" stroke-width="3.32" stroke-miterlimit="10"/>
<path d="M-3538.16 1111.43C-3384.09 778.886 -3078.97 525.873 -2719.78 414.609C-2678.56 401.872 -2636.74 391.178 -2594.52 382.091C-2268.41 312.46 -1918.21 352.015 -1634.51 497.336C-1502.31 565.097 -1385.96 652.881 -1271.42 742.43C-1182.89 811.49 -1095.05 881.343 -1001.07 943.319C-746.647 1112.44 -436.401 1205.87 -122.546 1061.79C32.5564 990.252 161.585 874.115 306.8 784.818C621.031 591.293 975.986 679.185 1251.9 903.944C1304.33 946.53 1353.31 993.081 1400.23 1042.01C1541.04 1189.54 1659.44 1359.04 1790.95 1516.01C1821.02 1551.84 1852.26 1587.44 1884.75 1621.76C2040.87 1787.85 2225.6 1929.15 2444.78 1983.03C2709.4 2047.83 3028.71 1945.19 3137.32 1702.34" stroke="#8FB15D" stroke-width="3.32" stroke-miterlimit="10"/>
<path d="M-3472.58 1137.9C-3310.9 818.219 -3004.79 583.591 -2648.14 478.46C-2607.17 466.337 -2565.92 456.129 -2523.82 447.349C-2200.21 380.276 -1855.13 410.518 -1574.37 539.525C-1443.31 599.626 -1328.2 678.269 -1214.6 758.805C-1126.72 820.766 -1039.71 883.086 -946.933 938.451C-695.049 1088.55 -391.288 1168.15 -81.5692 1024.51C72.0521 953.077 201.163 840.209 345.667 753.492C656.539 567.2 1007.1 651.831 1279.68 871.615C1331.75 913.334 1380.37 959.017 1426.5 1007.26C1565.68 1152.67 1681.88 1320.54 1811.19 1475.88C1840.64 1511.46 1871.4 1546.49 1903.28 1580.56C2057.01 1744.59 2239.92 1883.34 2455.97 1936.99C2716.7 2001.62 3030.45 1904.58 3143.45 1671.1" stroke="#8FB15D" stroke-width="3.32" stroke-miterlimit="10"/>
<path d="M-3407.01 1164.38C-3237.41 857.68 -2930.73 641.618 -2576.06 542.135C-2535.35 530.625 -2494.22 520.723 -2452.69 512.43C-2131.88 447.787 -1791.62 468.844 -1513.8 581.537C-1384.18 633.851 -1269.7 703.607 -1157.65 774.875C-1070.72 829.611 -984.234 884.526 -892.239 933.098C-643.758 1064.53 -345.486 1129.64 -40.4648 986.927C111.369 915.47 240.562 805.87 384.968 721.988C692.354 543.236 1039.07 624.119 1308.2 839.236C1359.78 880.394 1407.74 925.082 1453.51 972.455C1591.05 1115.75 1704.75 1281.86 1831.86 1435.57C1860.82 1470.59 1890.97 1505.37 1922.67 1539C2074.03 1700.97 2254.68 1837.34 2467.89 1890.9C2725.05 1955.48 3033.25 1864.05 3150.32 1639.8" stroke="#8FB15D" stroke-width="3.32" stroke-miterlimit="10"/>
<path d="M-3341.87 1191.03C-3164.54 896.885 -2856.98 699.516 -2504.73 605.859C-2464.4 595.269 -2423.4 585.674 -2382.3 577.561C-2064.17 515.042 -1728.85 527.22 -1454.28 623.471C-1326.23 668.305 -1212.56 728.742 -1101.31 790.689C-1015.04 838.326 -929.503 886.016 -838.592 927.669C-593.207 1040.57 -300.552 1091.48 -0.408058 949.266C149.638 877.786 279.22 771.582 423.222 690.408C727.556 519.016 1069.57 596.511 1335.5 806.346C1386.41 846.509 1434.02 890.329 1479.3 937.142C1615.32 1078.01 1726.69 1242.8 1851.42 1394.44C1880.09 1429.33 1909.74 1463.56 1940.52 1496.81C2089.5 1656.71 2268.34 1790.53 2477.98 1844.04C2731.25 1908.46 3033.89 1822.62 3155.35 1607.74" stroke="#8FB15D" stroke-width="3.32" stroke-miterlimit="10"/>
<path d="M-3276.29 1217.5C-3091.36 936.218 -2782.92 757.542 -2433.09 669.712C-2393.01 659.735 -2352.27 650.754 -2311.6 642.819C-1995.97 582.859 -1665.9 586.031 -1394.27 665.968C-1267.36 703.142 -1154.75 754.872 -1044.61 807.372C-959.424 848.09 -874.288 888.067 -784.589 923.108C-542.172 1017.17 -255.441 1053.76 40.133 912.166C188.391 840.663 318.055 737.729 461.96 659.39C762.808 495.538 1100.68 569.157 1363.15 774.325C1413.71 813.62 1460.82 856.88 1505.44 902.697C1639.83 1041.45 1748.69 1204.48 1871.22 1354.49C1899.4 1388.82 1928.44 1422.79 1958.74 1455.48C2105.34 1613.32 2281.93 1744.77 2488.73 1798.18C2738.12 1862.42 3035.2 1782.19 3161.16 1576.37" stroke="#8FB15D" stroke-width="3.32" stroke-miterlimit="10"/>
<path d="M-3210.71 1243.98C-3017.86 975.683 -2708.73 815.265 -2361.32 733.262C-2321.49 723.899 -2281.31 715.403 -2240.59 708.209C-1927.76 650.68 -1602.82 644.539 -1334.12 708.162C-1208.66 737.549 -1096.67 780.393 -987.781 823.752C-903.243 857.372 -819.063 890.123 -730.321 917.938C-491 993.46 -210.192 1015.74 80.8107 874.763C227.281 803.238 357.027 703.573 500.528 627.941C798.017 471.322 1131.62 541.374 1390.94 742.001C1440.7 780.608 1487.59 822.693 1531.59 868.256C1664.34 1004.89 1770.7 1166.17 1891.34 1314.67C1918.9 1348.75 1947.46 1382.16 1977.57 1414.41C2121.79 1570.18 2296.57 1699.09 2500.22 1752.27C2746.04 1816.47 3037.26 1741.71 3167.6 1545.25" stroke="#8FB15D" stroke-width="3.32" stroke-miterlimit="10"/>
<path d="M-3145.45 1270.33C-2944.87 1014.58 -2634.99 873.161 -2289.99 796.985C-2250.42 788.235 -2210.49 780.353 -2170.2 773.339C-1859.75 718.06 -1539.75 703.04 -1274 750.349C-1150.1 772.256 -1038.92 805.78 -930.964 840.126C-847.203 866.953 -763.727 891.866 -676.196 913.068C-440.278 969.927 -165.087 978.019 121.653 837.789C266.515 766.675 396.47 669.971 539.44 597.354C833.57 447.969 1163.08 514.886 1418.77 710.411C1468.17 748.15 1514.26 789.547 1557.91 834.242C1689.02 968.762 1793.18 1128.41 1911.31 1275.16C1938.39 1308.67 1966.64 1341.95 1995.83 1373.82C2137.55 1527.84 2310.32 1653.76 2511.02 1707.15C2752.95 1771.18 3038.61 1702.02 3173.65 1515.06" stroke="#8FB15D" stroke-width="3.32" stroke-miterlimit="10"/>
<path d="M-3079.99 1297.11C-2871.8 1054.22 -2560.93 931.19 -2218.34 860.841C-2179.03 852.705 -2139.35 845.436 -2099.5 838.601C-1791.85 785.753 -1476.67 761.548 -1214.16 792.415C-1091.4 806.663 -981.156 831.173 -874.44 856.378C-791.636 875.98 -708.81 893.793 -622.364 908.077C-389.541 946.401 -120.147 939.868 162.022 800.258C305.097 729.122 435.134 635.687 578.007 565.905C868.472 423.625 1194.02 487.101 1446.56 678.086C1495.29 714.831 1541.33 755.487 1584.18 799.494C1713.66 931.897 1815.31 1089.78 1931.37 1234.6C1957.84 1267.85 1985.6 1300.57 2014.61 1332.01C2153.95 1483.96 2324.78 1607.64 2522.34 1660.81C2760.39 1724.66 3040.49 1661.11 3179.91 1483.51" stroke="#8FB15D" stroke-width="3.32" stroke-miterlimit="10"/>
<path d="M-3014.42 1323.59C-2798.62 1093.55 -2486.87 989.214 -2146.4 924.819C-2107.34 917.296 -2067.91 910.64 -2028.49 903.985C-1723.52 853.262 -1413.59 820.05 -1154.02 834.603C-1032.7 841.064 -923.09 856.687 -817.614 872.752C-735.461 885.255 -653.465 895.536 -568.103 902.901C-338.81 922.868 -74.5988 901.966 202.693 762.85C343.98 691.691 474.1 601.525 616.875 534.578C903.854 399.838 1225.13 459.746 1474.34 645.756C1522.72 681.633 1567.96 721.601 1610.46 764.74C1738.29 895.027 1837.75 1051.28 1951.61 1194.46C1977.58 1227.16 2004.74 1259.62 2033.14 1290.81C2170.1 1440.69 2338.8 1561.69 2533.22 1614.64C2767.69 1678.45 3041.93 1620.37 3185.73 1452.13" stroke="#8FB15D" stroke-width="3.32" stroke-miterlimit="10"/>
<path d="M-2949.15 1349.93C-2725.44 1132.89 -2413.12 1047.11 -2074.93 988.239C-2036.25 981.636 -1997.27 975.16 -1957.98 968.812C-1655.5 920.647 -1350.52 878.556 -1093.88 876.795C-973.7 875.596 -865.329 882.079 -760.788 889.13C-679.286 894.534 -598.554 897.463 -513.663 898.162C-287.466 899.594 -29.0505 864.068 243.544 725.879C383.043 654.698 513.245 567.801 655.616 503.561C938.929 375.927 1256.24 432.394 1502.3 613.864C1550.19 649.18 1594.77 688.153 1636.91 730.425C1763.1 858.594 1860.05 1013.09 1971.72 1154.64C1997.39 1187.21 2023.74 1218.99 2051.97 1249.74C2186.55 1397.56 2353.44 1516.01 2544.58 1569.03C2775.17 1632.67 3044.16 1580.32 3192.17 1421.02" stroke="#8FB15D" stroke-width="3.32" stroke-miterlimit="10"/>
<path d="M-2883.57 1376.41C-2652.13 1171.91 -2338.93 1104.83 -2003.29 1052.09C-1964.87 1046.1 -1926.14 1040.24 -1887.28 1034.07C-1587.3 988.462 -1287.44 937.059 -1033.75 918.984C-915.133 910.305 -807.263 907.595 -703.964 905.505C-623.418 903.684 -543.337 899.513 -459.53 893.294C-236.863 876.369 16.063 826.347 284.215 688.472C422.232 617.395 552.21 533.64 694.483 472.235C974.565 351.527 1287.78 404.86 1530.08 581.535C1577.31 615.856 1621.84 654.088 1663.05 695.979C1787.61 822.031 1882.36 974.898 1991.52 1114.69C2016.7 1146.7 2042.75 1178.35 2070.18 1208.41C2202.38 1354.17 2367.02 1470.24 2555.33 1523.17C2782.22 1587.07 3045.47 1539.89 3197.86 1389.95" stroke="#8FB15D" stroke-width="3.32" stroke-miterlimit="10"/>
<path d="M-2818.43 1403.06C-2579.38 1211.43 -2265.31 1163.04 -1931.96 1115.82C-1893.79 1110.44 -1855.31 1105.19 -1816.58 1099.33C-1519.28 1055.85 -1224.36 995.564 -973.916 961.048C-856.747 944.582 -749.505 932.985 -647.447 921.755C-567.552 912.835 -488.427 901.439 -405.578 887.994C-186.133 852.84 60.9954 788.194 324.577 650.94C460.807 579.841 590.994 499.047 733.043 440.784C1009.46 327.182 1318.58 377.38 1557.56 549.081C1604.43 582.534 1648.16 620.079 1689.01 661.101C1812.06 784.73 1904.18 936.146 2011.57 1074.13C2036.14 1105.88 2061.71 1136.97 2088.83 1166.91C2218.53 1310.9 2381.47 1424.12 2566.64 1476.83C2789.65 1540.55 3047.34 1498.98 3204.11 1358.4" stroke="#8FB15D" stroke-width="3.32" stroke-miterlimit="10"/>
<path d="M-2752.85 1429.54C-2505.89 1250.89 -2191.13 1220.76 -1860.19 1179.36C-1822.28 1174.6 -1783.93 1169.66 -1745.88 1164.59C-1451.39 1123.54 -1161.29 1054.07 -913.777 1003.24C-797.745 979.111 -691.745 958.374 -590.621 938.13C-511.683 921.985 -433.209 903.49 -351.443 883.126C-135.402 829.309 106.238 750.166 365.555 613.66C499.998 542.538 630.266 465.014 772.218 409.586C1044.97 303.09 1350.13 349.846 1586.08 516.7C1632.28 549.158 1675.66 585.835 1716.03 626.297C1837.44 747.808 1927.05 897.466 2032.24 1033.82C2056.33 1065.01 2081.28 1095.84 2107.91 1125.22C2235.23 1267.15 2395.93 1378 2578.26 1430.61C2797.39 1494.16 3049.39 1458.49 3210.67 1326.98" stroke="#8FB15D" stroke-width="3.32" stroke-miterlimit="10"/>
<path d="M-2687.27 1456.01C-2432.71 1290.22 -2117.07 1278.79 -1788.55 1243.22C-1750.89 1239.07 -1713.1 1234.61 -1675.18 1229.85C-1383.19 1191.36 -1098.34 1112.88 -853.639 1045.43C-739.178 1013.82 -633.678 983.893 -533.668 954.202C-455.381 930.958 -377.864 905.237 -297.182 877.954C-84.364 805.908 151.479 712.142 406.226 576.256C538.881 505.112 669.232 430.856 810.779 378.135C1079.99 278.439 1380.93 322.368 1613.56 484.247C1659.27 516.144 1701.98 551.826 1741.99 591.42C1861.76 710.815 1949.18 858.842 2051.86 993.435C2075.34 1024.37 2100.11 1054.77 2125.82 1083.77C2250.76 1223.64 2409.64 1331.93 2588.4 1384.5C2803.95 1448 3050.09 1417.81 3215.75 1295.66" stroke="#8FB15D" stroke-width="3.32" stroke-miterlimit="10"/>
<path d="M-2622 1482.36C-2359.7 1329.12 -2043.19 1336.38 -1716.78 1306.76C-1679.37 1303.23 -1641.84 1299.38 -1604.36 1294.8C-1315.04 1258.43 -1035.13 1171.08 -793.501 1087.62C-680.176 1048.35 -575.917 1009.28 -476.842 970.578C-399.332 940.542 -322.645 907.289 -242.921 872.78C-33.3257 782.505 197.155 673.935 446.898 538.85C578.071 467.81 708.018 396.262 849.648 346.81C1115.19 254.219 1412.17 294.708 1641.65 452.046C1686.7 482.949 1729.35 517.89 1768.44 557.103C1886.58 674.38 1971.49 820.649 2072.28 953.739C2095.57 984.244 2119.42 1014.26 2144.96 1042.82C2267.52 1180.63 2424.28 1286.24 2600.2 1338.71C2811.86 1402.05 3052.45 1377.46 3222.62 1264.36" stroke="#8FB15D" stroke-width="3.32" stroke-miterlimit="10"/>
<path d="M-2556.56 1509.14C-2286.65 1368.76 -1969.26 1394.71 -1645.27 1370.92C-1608.24 1368.31 -1570.84 1364.77 -1533.79 1360.37C-1246.97 1326.56 -972.185 1229.89 -733.798 1129.99C-621.917 1082.94 -518.286 1034.98 -420.452 987.135C-343.9 949.872 -267.736 909.214 -189.223 868.093C17.1493 759.589 241.834 636.395 487.133 501.624C616.519 430.562 746.548 362.282 887.954 315.972C1149.96 230.181 1443.16 267.662 1668.87 420.206C1713.56 450.24 1755.42 484.494 1794.15 522.838C1910.65 637.999 1993.36 782.637 2091.77 913.662C2114.45 943.913 2137.82 973.37 2162.74 1001.68C2282.92 1137.41 2437.73 1240.79 2610.51 1293.03C2818.3 1356.19 3053.32 1337.21 3227.88 1233.48" stroke="#8FB15D" stroke-width="3.32" stroke-miterlimit="10"/>
<path d="M-2490.98 1535.62C-2213.16 1408.22 -1895.08 1452.43 -1573.5 1434.47C-1536.73 1432.47 -1499.88 1429.42 -1462.96 1425.32C-1178.82 1393.63 -908.98 1288.09 -673.532 1171.87C-563.221 1117.34 -460.27 1059.76 -363.498 1003.2C-287.775 958.409 -212.389 910.959 -134.654 863.045C68.8018 736.44 287.383 598.495 528.113 464.344C655.711 393.259 785.949 327.942 927.129 284.774C1185.29 205.654 1474.57 240.435 1696.96 388.004C1741.29 417.171 1782.36 450.736 1820.73 488.213C1935.59 601.257 2015.79 744.137 2112.01 873.532C2134.2 903.221 2156.96 932.424 2181.7 960.296C2299.5 1093.97 2452.19 1194.67 2622.01 1247.12C2826.22 1310.24 3055.68 1296.85 3234.32 1202.36" stroke="#8FB15D" stroke-width="3.32" stroke-miterlimit="10"/>
<path d="M-2425.71 1561.97C-2140.15 1447.12 -1821.33 1510.33 -1502.17 1498.2C-1465.65 1496.81 -1429.06 1494.37 -1392.57 1490.45C-1110.93 1461.32 -846.338 1346.77 -613.702 1213.94C-504.528 1151.74 -402.818 1085.02 -306.981 1019.45C-231.908 967.561 -157.173 913.012 -80.7017 857.746C119.531 712.911 332.444 560.036 568.782 426.94C694.593 355.832 824.733 293.35 965.689 253.323C1220.31 181.003 1505.5 212.649 1724.74 355.678C1768.28 384.157 1809.42 416.675 1847 453.463C1960.22 564.39 2037.92 705.513 2132.24 833.404C2153.82 862.839 2176.4 891.608 2200.35 918.792C2315.65 1050.71 2466.64 1148.55 2633.19 1201.08C2833.52 1264.03 3057.43 1256.24 3240.44 1171.12" stroke="#8FB15D" stroke-width="3.32" stroke-miterlimit="10"/>
<path d="M-2360.13 1588.44C-2066.97 1486.46 -1747.27 1568.35 -1430.4 1561.74C-1394.14 1560.97 -1357.8 1559.14 -1321.44 1555.53C-1042.6 1528.83 -782.828 1405.1 -553.258 1256.25C-445.527 1186.27 -344.445 1110.66 -249.849 1035.96C-175.861 977.144 -101.649 915.19 -26.2618 853.005C171.234 690.502 377.864 522.442 609.759 389.66C733.782 318.53 864.132 259.01 1004.86 222.125C1255.77 156.17 1536.92 185.422 1752.83 323.477C1796.01 351.088 1836.36 382.917 1873.58 418.838C1985.29 527.342 2060.66 667.14 2152.48 793.273C2173.57 822.147 2195.53 850.662 2219.18 877.718C2332.1 1007.57 2480.84 1103.04 2644.37 1155.04C2841.13 1217.94 3059.17 1215.63 3246.57 1139.87" stroke="#8FB15D" stroke-width="3.32" stroke-miterlimit="10"/>
<path d="M-2294.69 1615.22C-1959.2 1516.05 -1599.36 1651.97 -1250.87 1621.1C-844.966 1585.27 -485.814 1315.49 -193.458 1052.51C175.474 721.014 542 311.243 1043.17 191.286C1340.14 119.993 1679.94 172.489 1899.6 384.701C2035.07 515.638 2114.21 694.019 2237.26 836.699C2480.41 1117.95 2900.83 1230.84 3252.14 1109.12" stroke="#8FB15D" stroke-width="3.32" stroke-miterlimit="10"/>
</g>
</g>
</svg>
