<svg width="25" height="24" viewBox="0 0 25 24" fill="none" xmlns="http://www.w3.org/2000/svg">
<path fill-rule="evenodd" clip-rule="evenodd" d="M7.5 4.018C6.96 4.041 6.572 4.092 6.229 4.208C5.64238 4.40442 5.10932 4.73422 4.67171 5.17148C4.23411 5.60874 3.90388 6.14154 3.707 6.728C3.5 7.349 3.5 8.115 3.5 9.649C3.5 9.744 3.5 9.792 3.513 9.83C3.52528 9.86679 3.54594 9.90021 3.57337 9.92763C3.60079 9.95506 3.63421 9.97572 3.671 9.988C3.709 10.001 3.757 10.001 3.853 10.001H21.147C21.243 10.001 21.291 10.001 21.329 9.988C21.3658 9.97572 21.3992 9.95506 21.4266 9.92763C21.4541 9.90021 21.4747 9.86679 21.487 9.83C21.5 9.791 21.5 9.743 21.5 9.647C21.5 8.114 21.5 7.347 21.293 6.729C21.0964 6.14217 20.7663 5.60897 20.3287 5.17135C19.891 4.73372 19.3578 4.40362 18.771 4.207C18.428 4.092 18.039 4.041 17.5 4.018V6.5C17.5 6.89782 17.342 7.27936 17.0607 7.56066C16.7794 7.84196 16.3978 8 16 8C15.6022 8 15.2206 7.84196 14.9393 7.56066C14.658 7.27936 14.5 6.89782 14.5 6.5V4H10.5V6.5C10.5 6.89782 10.342 7.27936 10.0607 7.56066C9.77936 7.84196 9.39782 8 9 8C8.60218 8 8.22064 7.84196 7.93934 7.56066C7.65804 7.27936 7.5 6.89782 7.5 6.5V4.018Z" fill="#133816"/>
<path d="M3.5 11.5C3.5 11.264 3.5 11.146 3.573 11.073C3.646 11 3.764 11 4 11H21C21.236 11 21.354 11 21.427 11.073C21.5 11.146 21.5 11.264 21.5 11.5V12C21.5 15.771 21.5 17.657 20.328 18.828C19.156 19.999 17.271 20 13.5 20H11.5C7.729 20 5.843 20 4.672 18.828C3.501 17.656 3.5 15.771 3.5 12V11.5Z" fill="#133816" fill-opacity="0.2"/>
<path d="M9 2.5V6.5M16 2.5V6.5" stroke="#133816" stroke-linecap="round"/>
</svg>
