<svg width="18" height="21" viewBox="0 0 18 21" fill="none" xmlns="http://www.w3.org/2000/svg">
<path fill-rule="evenodd" clip-rule="evenodd" d="M14 0C14.5304 0 15.0391 0.210714 15.4142 0.585786C15.7893 0.960859 16 1.46957 16 2V3H17C17.2652 3 17.5196 3.10536 17.7071 3.29289C17.8946 3.48043 18 3.73478 18 4C18 4.26522 17.8946 4.51957 17.7071 4.70711C17.5196 4.89464 17.2652 5 17 5V16C17.2652 16 17.5196 16.1054 17.7071 16.2929C17.8946 16.4804 18 16.7348 18 17C18 17.2652 17.8946 17.5196 17.7071 17.7071C17.5196 17.8946 17.2652 18 17 18H10.5V13.5C10.5 13.1022 10.342 12.7206 10.0607 12.4393C9.77936 12.158 9.39782 12 9 12C8.60218 12 8.22064 12.158 7.93934 12.4393C7.65804 12.7206 7.5 13.1022 7.5 13.5V18H1C0.734784 18 0.48043 17.8946 0.292893 17.7071C0.105357 17.5196 0 17.2652 0 17C0 16.7348 0.105357 16.4804 0.292893 16.2929C0.48043 16.1054 0.734784 16 1 16V5C0.734784 5 0.48043 4.89464 0.292893 4.70711C0.105357 4.51957 0 4.26522 0 4C0 3.73478 0.105357 3.48043 0.292893 3.29289C0.48043 3.10536 0.734784 3 1 3H2V2C2 1.46957 2.21071 0.960859 2.58579 0.585786C2.96086 0.210714 3.46957 0 4 0H14ZM5 10C4.73478 10 4.48043 10.1054 4.29289 10.2929C4.10536 10.4804 4 10.7348 4 11V12C4 12.2652 4.10536 12.5196 4.29289 12.7071C4.48043 12.8946 4.73478 13 5 13C5.26522 13 5.51957 12.8946 5.70711 12.7071C5.89464 12.5196 6 12.2652 6 12V11C6 10.7348 5.89464 10.4804 5.70711 10.2929C5.51957 10.1054 5.26522 10 5 10ZM13 10C12.7551 10 12.5187 10.09 12.3356 10.2527C12.1526 10.4155 12.0357 10.6397 12.007 10.883L12 11V12C12.0003 12.2549 12.0979 12.5 12.2728 12.6854C12.4478 12.8707 12.687 12.9822 12.9414 12.9972C13.1958 13.0121 13.4464 12.9293 13.6418 12.7657C13.8373 12.6021 13.9629 12.3701 13.993 12.117L14 12V11C14 10.7348 13.8946 10.4804 13.7071 10.2929C13.5196 10.1054 13.2652 10 13 10ZM5 6C4.75507 6.00003 4.51866 6.08996 4.33563 6.25272C4.15259 6.41547 4.03566 6.63975 4.007 6.883L4 7V8C4.00028 8.25488 4.09788 8.50003 4.27285 8.68537C4.44782 8.8707 4.68695 8.98223 4.94139 8.99717C5.19584 9.01211 5.44638 8.92933 5.64183 8.76574C5.83729 8.60215 5.9629 8.3701 5.993 8.117L6 8V7C6 6.73478 5.89464 6.48043 5.70711 6.29289C5.51957 6.10536 5.26522 6 5 6ZM9 6C8.75507 6.00003 8.51866 6.08996 8.33563 6.25272C8.15259 6.41547 8.03566 6.63975 8.007 6.883L8 7V8C8.00028 8.25488 8.09788 8.50003 8.27285 8.68537C8.44782 8.8707 8.68695 8.98223 8.94139 8.99717C9.19584 9.01211 9.44638 8.92933 9.64183 8.76574C9.83729 8.60215 9.9629 8.3701 9.993 8.117L10 8V7C10 6.73478 9.89464 6.48043 9.70711 6.29289C9.51957 6.10536 9.26522 6 9 6ZM13 6C12.7348 6 12.4804 6.10536 12.2929 6.29289C12.1054 6.48043 12 6.73478 12 7V8C12 8.26522 12.1054 8.51957 12.2929 8.70711C12.4804 8.89464 12.7348 9 13 9C13.2652 9 13.5196 8.89464 13.7071 8.70711C13.8946 8.51957 14 8.26522 14 8V7C14 6.73478 13.8946 6.48043 13.7071 6.29289C13.5196 6.10536 13.2652 6 13 6ZM14 2H4V3H14V2Z" fill="#133816"/>
</svg>
