<svg width="137" height="51" viewBox="0 0 137 51" fill="none" xmlns="http://www.w3.org/2000/svg">
<g clip-path="url(#clip0_2319_406)">
<path d="M43.1699 14.6844H35.7327V7.24716C35.7327 3.57642 32.7392 0.583008 29.0685 0.583008H20.7623C17.0915 0.583008 14.0981 3.57642 14.0981 7.24716V14.6844H6.66085C2.99342 14.6844 0 17.6779 0 21.3486V29.6548C0 33.3256 2.99342 36.319 6.66415 36.319H14.1014V43.7563C14.1014 47.427 17.0948 50.4204 20.7656 50.4204H29.0718C32.7425 50.4204 35.736 47.427 35.736 43.7563V36.319H43.1732C46.844 36.319 49.8374 33.3256 49.8374 29.6548V21.3486C49.8374 17.6779 46.844 14.6844 43.1732 14.6844H43.1699ZM33.8329 25.1449V38.3443L28.1368 33.5469C27.1059 33.9963 25.9462 34.2242 24.7568 34.2242C19.7347 34.2242 15.6477 30.1702 15.6477 25.1482C15.6477 20.1261 19.7347 16.0688 24.7568 16.0688C29.7789 16.0688 33.7073 19.9973 33.8362 24.9202V25.1449H33.8329Z" fill="#98C254"/>
<path d="M64.2988 11.7636H62.0785V9.44751H68.5973V11.7636H66.3869V24.7252H64.2988V11.7636Z" fill="#98C254"/>
<path d="M70.2759 24.7251V9.4375H76.2231V11.7536H72.3673V15.9232H75.1856V18.2393H72.3673V22.409H76.2231V24.7251H70.2759Z" fill="#98C254"/>
<path d="M80.9542 9.44751C82.1172 9.44751 82.973 9.80104 83.5181 10.5081C83.9972 11.1259 84.2351 11.9883 84.2351 13.0918V15.3121C84.2351 16.3925 83.8617 17.3077 83.1184 18.0544L84.6646 24.7252H82.4047L81.1393 18.9696H79.7483V24.7252H77.6602V9.44751H80.9542ZM82.2031 13.1315C82.2031 12.246 81.8067 11.8033 81.0104 11.8033H79.7516V16.6932H81.0104C81.3408 16.6932 81.6249 16.5643 81.8562 16.3033C82.0875 16.0423 82.2031 15.7284 82.2031 15.365V13.1348V13.1315Z" fill="#98C254"/>
<path d="M89.7494 9.44751C90.9124 9.44751 91.7681 9.80104 92.3133 10.5081C92.7924 11.1259 93.0303 11.9883 93.0303 13.0918V15.3121C93.0303 16.3925 92.6569 17.3077 91.9135 18.0544L93.4598 24.7252H91.1998L89.9344 18.9696H88.5434V24.7252H86.4553V9.44751H89.7494ZM90.9983 13.1315C90.9983 12.246 90.6018 11.8033 89.8056 11.8033H88.5467V16.6932H89.8056C90.136 16.6932 90.4201 16.5643 90.6514 16.3033C90.8827 16.0423 90.9983 15.7284 90.9983 15.365V13.1348V13.1315Z" fill="#98C254"/>
<path d="M97.342 24.7252H95.2539V9.44751H97.342V24.7252Z" fill="#98C254"/>
<path d="M101.244 11.7636H99.0239V9.44751H105.543V11.7636H103.332V24.7252H101.244V11.7636Z" fill="#98C254"/>
<path d="M110.284 9.25244C111.206 9.25244 111.989 9.60927 112.633 10.3262C113.277 11.0399 113.601 11.9022 113.601 12.91V21.2492C113.601 22.2669 113.277 23.1292 112.63 23.8396C111.982 24.5499 111.199 24.9068 110.287 24.9068C109.375 24.9068 108.586 24.5499 107.945 23.833C107.304 23.116 106.983 22.257 106.983 21.2492V12.91C106.983 11.8956 107.307 11.03 107.955 10.3196C108.602 9.60927 109.382 9.25244 110.287 9.25244H110.284ZM111.424 12.8637C111.424 12.497 111.308 12.1864 111.073 11.932C110.839 11.6776 110.558 11.5487 110.228 11.5487C109.897 11.5487 109.613 11.6776 109.375 11.932C109.137 12.1864 109.022 12.5003 109.022 12.8637V21.2294C109.022 21.5962 109.137 21.9067 109.375 22.1611C109.61 22.4155 109.894 22.5444 110.228 22.5444C110.561 22.5444 110.842 22.4155 111.073 22.1611C111.305 21.9034 111.424 21.5928 111.424 21.2294V12.8637Z" fill="#98C254"/>
<path d="M118.739 9.44751C119.902 9.44751 120.757 9.80104 121.303 10.5081C121.782 11.1259 122.023 11.9883 122.023 13.0918V15.3121C122.023 16.3925 121.649 17.3077 120.906 18.0544L122.452 24.7252H120.192L118.927 18.9696H117.533V24.7252H115.445V9.44751H118.739ZM119.988 13.1315C119.988 12.246 119.591 11.8033 118.795 11.8033H117.536V16.6932H118.795C119.125 16.6932 119.409 16.5643 119.641 16.3033C119.872 16.0423 119.991 15.7284 119.991 15.365V13.1348L119.988 13.1315Z" fill="#98C254"/>
<path d="M125.756 18.3252L122.961 9.4375H125.261L126.807 14.9254L128.344 9.4375H130.653L127.845 18.3252V24.7251H125.756V18.3252Z" fill="#98C254"/>
<path d="M59.6669 29.2483C60.6416 29.2483 61.4742 29.6117 62.1548 30.3386C62.8387 31.0655 63.1791 31.941 63.1791 32.962V41.4301C63.1791 42.461 62.8354 43.3398 62.1482 44.0601C61.461 44.7804 60.6317 45.1438 59.6636 45.1438C58.6955 45.1438 57.8596 44.7804 57.179 44.0535C56.4984 43.3266 56.1614 42.451 56.1614 41.4301V32.962C56.1614 31.9311 56.505 31.0523 57.1922 30.332C57.8795 29.6117 58.7055 29.2483 59.6636 29.2483H59.6669ZM60.8729 32.9124C60.8729 32.5424 60.7506 32.2252 60.5028 31.9642C60.255 31.7032 59.9577 31.5743 59.6074 31.5743C59.2572 31.5743 58.9532 31.7032 58.7054 31.9642C58.4543 32.2252 58.3288 32.5391 58.3288 32.9124V41.407C58.3288 41.7803 58.4543 42.0942 58.7054 42.3552C58.9532 42.6162 59.2539 42.7451 59.6074 42.7451C59.961 42.7451 60.2583 42.6162 60.5028 42.3552C60.7473 42.0942 60.8729 41.7803 60.8729 41.407V32.9124Z" fill="white"/>
<path d="M67.3387 44.9622H65.125V29.4368H71.4257V31.7892H67.3387V36.0249H70.3255V38.3774H67.3387V44.9622Z" fill="white"/>
<path d="M76.6857 44.9622H74.472V29.4368H77.6505L79.7122 40.591L81.6946 29.4368H84.7475V44.9622H82.5338V35.2055L80.6142 44.9622H78.8333L76.689 35.232V44.9622H76.6857Z" fill="white"/>
<path d="M86.7267 44.9622V29.4368H93.0274V31.7892H88.9371V36.0249H91.9239V38.3774H88.9371V42.6131H93.0274V44.9655H86.7267V44.9622Z" fill="white"/>
<path d="M101.509 41.2451C101.509 42.2694 101.168 43.1449 100.491 43.8685C99.8104 44.5954 98.991 44.9588 98.0295 44.9588H94.5504V29.4333H98.0295C98.9976 29.4333 99.8203 29.7968 100.494 30.5237C101.172 31.2505 101.509 32.1195 101.509 33.1371V41.2451ZM96.7641 42.646H98.0989C98.4491 42.646 98.7465 42.5105 98.9877 42.2429C99.2289 41.9753 99.3511 41.6581 99.3511 41.2947V33.1735C99.3511 32.8034 99.2289 32.4829 98.9811 32.2219C98.7366 31.9576 98.4392 31.8254 98.0956 31.8254H96.7608V42.646H96.7641Z" fill="white"/>
<path d="M105.665 44.9622H103.451V29.45H105.665V44.9622Z" fill="white"/>
<path d="M111.137 45.1604C110.162 45.1604 109.329 44.8002 108.649 44.0767C107.968 43.3531 107.624 42.4808 107.624 41.4566V32.9885C107.624 31.9576 107.968 31.0788 108.655 30.3552C109.342 29.6316 110.168 29.2715 111.14 29.2715C112.111 29.2715 112.944 29.6349 113.624 30.3618C114.305 31.0887 114.642 31.9642 114.642 32.9885V34.7594H112.346V32.9389C112.346 32.5689 112.22 32.2484 111.972 31.9874C111.721 31.723 111.421 31.5909 111.07 31.5909C110.72 31.5909 110.42 31.723 110.175 31.9874C109.927 32.2517 109.805 32.5689 109.805 32.9389V41.4335C109.805 41.8035 109.927 42.1207 110.175 42.3817C110.42 42.6427 110.72 42.7716 111.07 42.7716C111.421 42.7716 111.721 42.6394 111.972 42.3817C112.224 42.124 112.346 41.8068 112.346 41.4335V39.2925H114.642V41.4599C114.642 42.4908 114.298 43.3663 113.611 44.0866C112.924 44.8035 112.098 45.1637 111.14 45.1637L111.137 45.1604Z" fill="white"/>
<path d="M118.669 44.9622H116.456V29.45H118.669V44.9622Z" fill="white"/>
<path d="M123.133 29.4333L126.071 39.8674V29.4333H128.284V44.9588H125.905L122.859 35.0171V44.9588H120.645V29.4333H123.13H123.133Z" fill="white"/>
<path d="M130.263 44.9622V29.4368H136.564V31.7892H132.477V36.0249H135.464V38.3774H132.477V42.6131H136.564V44.9655H130.263V44.9622Z" fill="white"/>
</g>
<defs>
<clipPath id="clip0_2319_406">
<rect width="136.567" height="49.8341" fill="white" transform="translate(0 0.583008)"/>
</clipPath>
</defs>
</svg>
