<svg width="137" height="50" viewBox="0 0 137 50" fill="none" xmlns="http://www.w3.org/2000/svg">
<g clip-path="url(#clip0_2319_78)">
<path d="M43.1699 14.1844H35.7327V6.7471C35.7327 3.07637 32.7392 0.0829506 29.0685 0.0829506H20.7623C17.0915 0.0829506 14.0981 3.07637 14.0981 6.7471V14.1844H6.66085C2.99342 14.1844 0 17.1778 0 20.8485V29.1548C0 32.8255 2.99342 35.8189 6.66415 35.8189H14.1014V43.2562C14.1014 46.9269 17.0948 49.9203 20.7656 49.9203H29.0718C32.7425 49.9203 35.736 46.9269 35.736 43.2562V35.8189H43.1732C46.844 35.8189 49.8374 32.8255 49.8374 29.1548V20.8485C49.8374 17.1778 46.844 14.1844 43.1732 14.1844H43.1699ZM33.8329 24.6448V37.8443L28.1368 33.0469C27.1059 33.4962 25.9462 33.7242 24.7568 33.7242C19.7347 33.7242 15.6477 29.6702 15.6477 24.6481C15.6477 19.6261 19.7347 15.5688 24.7568 15.5688C29.7789 15.5688 33.7073 19.4972 33.8362 24.4201V24.6448H33.8329Z" fill="#98C254"/>
<path d="M64.2989 11.2636H62.0786V8.94748H68.5974V11.2636H66.387V24.2251H64.2989V11.2636Z" fill="#98C254"/>
<path d="M70.276 24.225V8.93741H76.2232V11.2535H72.3674V15.4231H75.1857V17.7392H72.3674V21.9089H76.2232V24.225H70.276Z" fill="#98C254"/>
<path d="M80.9544 8.94748C82.1174 8.94748 82.9731 9.30101 83.5183 10.0081C83.9973 10.6259 84.2352 11.4883 84.2352 12.5918V14.8121C84.2352 15.8925 83.8619 16.8077 83.1185 17.5544L84.6647 24.2251H82.4048L81.1394 18.4696H79.7484V24.2251H77.6603V8.94748H80.9544ZM82.2033 12.6314C82.2033 11.746 81.8068 11.3032 81.0105 11.3032H79.7517V16.1931H81.0105C81.3409 16.1931 81.6251 16.0643 81.8563 15.8033C82.0876 15.5422 82.2033 15.2284 82.2033 14.8649V12.6347V12.6314Z" fill="#98C254"/>
<path d="M89.7496 8.94748C90.9126 8.94748 91.7683 9.30101 92.3135 10.0081C92.7926 10.6259 93.0304 11.4883 93.0304 12.5918V14.8121C93.0304 15.8925 92.6571 16.8077 91.9137 17.5544L93.46 24.2251H91.2L89.9346 18.4696H88.5436V24.2251H86.4555V8.94748H89.7496ZM90.9985 12.6314C90.9985 11.746 90.602 11.3032 89.8057 11.3032H88.5469V16.1931H89.8057C90.1361 16.1931 90.4203 16.0643 90.6516 15.8033C90.8828 15.5422 90.9985 15.2284 90.9985 14.8649V12.6347V12.6314Z" fill="#98C254"/>
<path d="M97.3422 24.2251H95.254V8.94748H97.3422V24.2251Z" fill="#98C254"/>
<path d="M101.244 11.2636H99.024V8.94748H105.543V11.2636H103.332V24.2251H101.244V11.2636Z" fill="#98C254"/>
<path d="M110.284 8.75238C111.206 8.75238 111.989 9.10921 112.633 9.82618C113.277 10.5398 113.601 11.4022 113.601 12.4099V20.7492C113.601 21.7668 113.277 22.6291 112.63 23.3395C111.982 24.0499 111.199 24.4067 110.287 24.4067C109.375 24.4067 108.586 24.0499 107.945 23.3329C107.304 22.6159 106.983 21.7569 106.983 20.7492V12.4099C106.983 11.3956 107.307 10.5299 107.955 9.81957C108.602 9.10921 109.382 8.75238 110.287 8.75238H110.284ZM111.424 12.3636C111.424 11.9969 111.308 11.6863 111.074 11.4319C110.839 11.1775 110.558 11.0487 110.228 11.0487C109.897 11.0487 109.613 11.1775 109.375 11.4319C109.138 11.6863 109.022 12.0002 109.022 12.3636V20.7293C109.022 21.0961 109.138 21.4067 109.375 21.6611C109.61 21.9155 109.894 22.0443 110.228 22.0443C110.562 22.0443 110.842 21.9155 111.074 21.6611C111.305 21.4034 111.424 21.0928 111.424 20.7293V12.3636Z" fill="#98C254"/>
<path d="M118.739 8.94748C119.902 8.94748 120.758 9.30101 121.303 10.0081C121.782 10.6259 122.023 11.4883 122.023 12.5918V14.8121C122.023 15.8925 121.65 16.8077 120.906 17.5544L122.452 24.2251H120.193L118.927 18.4696H117.533V24.2251H115.445V8.94748H118.739ZM119.988 12.6314C119.988 11.746 119.591 11.3032 118.795 11.3032H117.536V16.1931H118.795C119.125 16.1931 119.409 16.0643 119.641 15.8033C119.872 15.5422 119.991 15.2284 119.991 14.8649V12.6347L119.988 12.6314Z" fill="#98C254"/>
<path d="M125.757 17.8251L122.961 8.93741H125.261L126.807 14.4253L128.344 8.93741H130.653L127.845 17.8251V24.225H125.757V17.8251Z" fill="#98C254"/>
<path d="M59.6669 28.7482C60.6416 28.7482 61.4742 29.1117 62.1548 29.8385C62.8387 30.5654 63.1791 31.441 63.1791 32.4619V40.93C63.1791 41.9609 62.8354 42.8398 62.1482 43.56C61.461 44.2803 60.6317 44.6437 59.6636 44.6437C58.6955 44.6437 57.8596 44.2803 57.179 43.5534C56.4984 42.8265 56.1614 41.951 56.1614 40.93V32.4619C56.1614 31.4311 56.505 30.5522 57.1922 29.8319C57.8795 29.1117 58.7055 28.7482 59.6636 28.7482H59.6669ZM60.8729 32.4124C60.8729 32.0423 60.7506 31.7251 60.5028 31.4641C60.255 31.2031 59.9577 31.0742 59.6074 31.0742C59.2572 31.0742 58.9532 31.2031 58.7054 31.4641C58.4543 31.7251 58.3288 32.039 58.3288 32.4124V40.9069C58.3288 41.2803 58.4543 41.5941 58.7054 41.8552C58.9532 42.1162 59.2539 42.245 59.6074 42.245C59.961 42.245 60.2583 42.1162 60.5028 41.8552C60.7473 41.5941 60.8729 41.2803 60.8729 40.9069V32.4124Z" fill="#5A98D3"/>
<path d="M67.3387 44.4621H65.125V28.9366H71.4257V31.2891H67.3387V35.5248H70.3255V37.8772H67.3387V44.4621Z" fill="#5A98D3"/>
<path d="M76.6857 44.4621H74.472V28.9366H77.6505L79.7122 40.0909L81.6946 28.9366H84.7475V44.4621H82.5338V34.7054L80.6142 44.4621H78.8333L76.689 34.7318V44.4621H76.6857Z" fill="#5A98D3"/>
<path d="M86.7267 44.4621V28.9366H93.0274V31.2891H88.9371V35.5248H91.9239V37.8772H88.9371V42.1129H93.0274V44.4654H86.7267V44.4621Z" fill="#5A98D3"/>
<path d="M101.509 40.7451C101.509 41.7693 101.168 42.6449 100.491 43.3685C99.8104 44.0953 98.991 44.4588 98.0295 44.4588H94.5504V28.9333H98.0295C98.9976 28.9333 99.8203 29.2968 100.494 30.0237C101.172 30.7505 101.509 31.6195 101.509 32.6371V40.7451ZM96.7641 42.146H98.0989C98.4491 42.146 98.7465 42.0105 98.9877 41.7429C99.2289 41.4753 99.3511 41.1581 99.3511 40.7947V32.6735C99.3511 32.3034 99.2289 31.9829 98.9811 31.7219C98.7366 31.4576 98.4392 31.3254 98.0956 31.3254H96.7608V42.146H96.7641Z" fill="#5A98D3"/>
<path d="M105.665 44.4621H103.451V28.9498H105.665V44.4621Z" fill="#5A98D3"/>
<path d="M111.137 44.6603C110.162 44.6603 109.329 44.3001 108.649 43.5766C107.968 42.853 107.624 41.9807 107.624 40.9565V32.4884C107.624 31.4575 107.968 30.5787 108.655 29.8551C109.342 29.1315 110.168 28.7714 111.14 28.7714C112.111 28.7714 112.944 29.1348 113.624 29.8617C114.305 30.5886 114.642 31.4641 114.642 32.4884V34.2593H112.346V32.4388C112.346 32.0688 112.22 31.7483 111.972 31.4873C111.721 31.2229 111.421 31.0908 111.07 31.0908C110.72 31.0908 110.42 31.2229 110.175 31.4873C109.927 31.7516 109.805 32.0688 109.805 32.4388V40.9334C109.805 41.3034 109.927 41.6206 110.175 41.8816C110.42 42.1426 110.72 42.2715 111.07 42.2715C111.421 42.2715 111.721 42.1393 111.972 41.8816C112.224 41.6239 112.346 41.3067 112.346 40.9334V38.7924H114.642V40.9598C114.642 41.9907 114.298 42.8662 113.611 43.5865C112.924 44.3034 112.098 44.6636 111.14 44.6636L111.137 44.6603Z" fill="#5A98D3"/>
<path d="M118.67 44.4621H116.456V28.9498H118.67V44.4621Z" fill="#5A98D3"/>
<path d="M123.133 28.9333L126.071 39.3673V28.9333H128.284V44.4588H125.905L122.859 34.5171V44.4588H120.645V28.9333H123.13H123.133Z" fill="#5A98D3"/>
<path d="M130.263 44.4621V28.9366H136.564V31.2891H132.477V35.5248H135.464V37.8772H132.477V42.1129H136.564V44.4654H130.263V44.4621Z" fill="#5A98D3"/>
</g>
<defs>
<clipPath id="clip0_2319_78">
<rect width="136.567" height="49.8341" fill="white" transform="translate(0 0.0829506)"/>
</clipPath>
</defs>
</svg>
