<svg width="13" height="9" viewBox="0 0 13 9" fill="none" xmlns="http://www.w3.org/2000/svg">
<path d="M10.9612 0.0826931H2.54117C2.20875 0.0822115 1.883 0.175879 1.60161 0.352852C1.32023 0.529825 1.09471 0.782868 0.951168 1.08269C0.783135 1.43843 0.718416 1.83423 0.764385 2.22496C0.810354 2.6157 0.965162 2.98566 1.21117 3.29269L5.42117 8.39269C5.58638 8.58332 5.79065 8.73621 6.02012 8.84099C6.24959 8.94577 6.49891 9 6.75117 9C7.00343 9 7.25274 8.94577 7.48222 8.84099C7.71169 8.73621 7.91595 8.58332 8.08117 8.39269L12.2912 3.29269C12.5372 2.98566 12.692 2.6157 12.738 2.22496C12.7839 1.83423 12.7192 1.43843 12.5512 1.08269C12.4076 0.782868 12.1821 0.529825 11.9007 0.352852C11.6193 0.175879 11.2936 0.0822115 10.9612 0.0826931Z" fill="#F0EFEA"/>
</svg>
