<svg width="20" height="20" viewBox="0 0 20 20" fill="none" xmlns="http://www.w3.org/2000/svg">
<path d="M11.457 0.0117188C16.1531 0.249987 19.8877 4.13339 19.8877 8.88867L19.876 9.3457C19.6379 14.0417 15.755 17.776 11 17.7764L10.542 17.7646C8.62534 17.6675 6.86966 16.9618 5.46191 15.8389L1.70703 19.5947C1.31654 19.9851 0.683463 19.9851 0.292969 19.5947C-0.0975157 19.2042 -0.0974361 18.5712 0.292969 18.1807L4.04785 14.4248C2.92524 13.0172 2.22021 11.262 2.12305 9.3457L2.11133 8.88867C2.11133 3.97985 6.09118 0 11 0L11.457 0.0117188ZM11 2C7.19575 2 4.11133 5.08442 4.11133 8.88867C4.11145 10.7094 4.81875 12.3642 5.97266 13.5957C6.0359 13.6352 6.09638 13.6813 6.15137 13.7363C6.20601 13.791 6.25167 13.8512 6.29102 13.9141C7.52288 15.0685 9.17863 15.7764 11 15.7764C14.8037 15.7759 17.8874 12.6925 17.8877 8.88867C17.8877 5.08468 14.8039 2.00042 11 2Z" fill="#133816"/>
</svg>
