<svg width="34" height="34" viewBox="0 0 34 34" fill="none" xmlns="http://www.w3.org/2000/svg">
<g clip-path="url(#clip0_2319_227)">
<path d="M4.27447 4.27228C4.27447 3.26673 5.08686 2.45435 6.0924 2.45435H26.0896C30.1061 2.45435 33.3614 5.70958 33.3614 9.72607C33.3614 13.7426 30.1061 16.9978 26.0896 16.9978C26.0896 20.0087 23.6468 22.4516 20.6358 22.4516H9.72827C6.71732 22.4516 4.27447 20.0087 4.27447 16.9978V4.27228ZM29.7255 9.72607C29.7255 7.72066 28.095 6.09021 26.0896 6.09021V13.3619C28.095 13.3619 29.7255 11.7315 29.7255 9.72607ZM4.27447 26.0874H26.0896C27.0952 26.0874 27.9076 26.8998 27.9076 27.9054C27.9076 28.9109 27.0952 29.7233 26.0896 29.7233H4.27447C3.26893 29.7233 2.45654 28.9109 2.45654 27.9054C2.45654 26.8998 3.26893 26.0874 4.27447 26.0874Z" fill="white"/>
</g>
<defs>
<clipPath id="clip0_2319_227">
<rect width="32.7273" height="32.7273" fill="white" transform="translate(0.636353 0.636353)"/>
</clipPath>
</defs>
</svg>
