<svg width="34" height="34" viewBox="0 0 34 34" fill="none" xmlns="http://www.w3.org/2000/svg">
<g clip-path="url(#clip0_2319_272)">
<path d="M0.636353 2.68181C0.636353 1.55042 1.55042 0.636353 2.68181 0.636353H31.3182C32.4496 0.636353 33.3636 1.55042 33.3636 2.68181C33.3636 3.8132 32.4496 4.72726 31.3182 4.72726V29.2727C32.4496 29.2727 33.3636 30.1868 33.3636 31.3182C33.3636 32.4496 32.4496 33.3636 31.3182 33.3636H20.0682V30.2955C20.0682 28.6016 18.6939 27.2273 17 27.2273C15.3061 27.2273 13.9318 28.6016 13.9318 30.2955V33.3636H2.68181C1.55042 33.3636 0.636353 32.4496 0.636353 31.3182C0.636353 30.1868 1.55042 29.2727 2.68181 29.2727V4.72726C1.55042 4.72726 0.636353 3.8132 0.636353 2.68181ZM6.77272 7.79545V9.8409C6.77272 10.4034 7.23295 10.8636 7.79545 10.8636H9.8409C10.4034 10.8636 10.8636 10.4034 10.8636 9.8409V7.79545C10.8636 7.23295 10.4034 6.77272 9.8409 6.77272H7.79545C7.23295 6.77272 6.77272 7.23295 6.77272 7.79545ZM15.9773 6.77272C15.4148 6.77272 14.9545 7.23295 14.9545 7.79545V9.8409C14.9545 10.4034 15.4148 10.8636 15.9773 10.8636H18.0227C18.5852 10.8636 19.0455 10.4034 19.0455 9.8409V7.79545C19.0455 7.23295 18.5852 6.77272 18.0227 6.77272H15.9773ZM23.1364 7.79545V9.8409C23.1364 10.4034 23.5966 10.8636 24.1591 10.8636H26.2046C26.7671 10.8636 27.2273 10.4034 27.2273 9.8409V7.79545C27.2273 7.23295 26.7671 6.77272 26.2046 6.77272H24.1591C23.5966 6.77272 23.1364 7.23295 23.1364 7.79545ZM7.79545 12.9091C7.23295 12.9091 6.77272 13.3693 6.77272 13.9318V15.9773C6.77272 16.5398 7.23295 17 7.79545 17H9.8409C10.4034 17 10.8636 16.5398 10.8636 15.9773V13.9318C10.8636 13.3693 10.4034 12.9091 9.8409 12.9091H7.79545ZM14.9545 13.9318V15.9773C14.9545 16.5398 15.4148 17 15.9773 17H18.0227C18.5852 17 19.0455 16.5398 19.0455 15.9773V13.9318C19.0455 13.3693 18.5852 12.9091 18.0227 12.9091H15.9773C15.4148 12.9091 14.9545 13.3693 14.9545 13.9318ZM24.1591 12.9091C23.5966 12.9091 23.1364 13.3693 23.1364 13.9318V15.9773C23.1364 16.5398 23.5966 17 24.1591 17H26.2046C26.7671 17 27.2273 16.5398 27.2273 15.9773V13.9318C27.2273 13.3693 26.7671 12.9091 26.2046 12.9091H24.1591ZM21.6023 25.1818C22.4524 25.1818 23.1555 24.4851 22.9446 23.6605C22.267 21.0078 19.8636 19.0455 17 19.0455C14.1364 19.0455 11.7266 21.0078 11.0554 23.6605C10.8445 24.4787 11.554 25.1818 12.3977 25.1818H21.6023Z" fill="white"/>
</g>
<defs>
<clipPath id="clip0_2319_272">
<rect width="32.7273" height="32.7273" fill="white" transform="translate(0.636353 0.636353)"/>
</clipPath>
</defs>
</svg>
