<svg width="33" height="33" viewBox="0 0 33 33" fill="none" xmlns="http://www.w3.org/2000/svg">
<path fill-rule="evenodd" clip-rule="evenodd" d="M16.6363 5.61989C18.198 4.17298 20.2474 3.36749 22.3763 3.36389C24.6777 3.36389 26.875 4.31056 28.483 5.97722C30.0831 7.64522 30.9744 9.8685 30.9697 12.1799C30.9744 14.4913 30.0831 16.7146 28.483 18.3826C27.4217 19.4826 26.3617 20.6092 25.2963 21.7399C23.131 24.0386 20.943 26.3626 18.6697 28.5506L18.6657 28.5559C18.1012 29.0904 17.3486 29.3806 16.5714 29.3634C15.7942 29.3461 15.0552 29.0229 14.515 28.4639L4.78834 18.3826C1.47501 14.9466 1.47501 9.41322 4.78834 5.97856C6.31982 4.37377 8.42152 3.43643 10.6388 3.3693C12.856 3.30218 15.0106 4.11068 16.6363 5.61989Z" fill="white"/>
</svg>
