<svg width="33" height="33" viewBox="0 0 33 33" fill="none" xmlns="http://www.w3.org/2000/svg">
<path d="M21.4263 4.3999C20.2101 3.08677 18.5113 2.36365 16.6363 2.36365C14.7513 2.36365 13.047 3.0824 11.8363 4.3874C10.6126 5.70677 10.0163 7.4999 10.1563 9.43615C10.4338 13.2561 13.3407 16.3636 16.6363 16.3636C19.932 16.3636 22.8338 13.2568 23.1157 9.4374C23.2576 7.51865 22.6576 5.72927 21.4263 4.3999ZM27.6363 30.3636H5.63634C5.34838 30.3674 5.06321 30.3069 4.80157 30.1866C4.53993 30.0662 4.30841 29.8891 4.12384 29.668C3.71759 29.1824 3.55384 28.5193 3.67509 27.8486C4.20259 24.9224 5.84884 22.4643 8.43634 20.7386C10.7351 19.2068 13.647 18.3636 16.6363 18.3636C19.6257 18.3636 22.5376 19.2074 24.8363 20.7386C27.4238 22.4636 29.0701 24.9218 29.5976 27.848C29.7188 28.5186 29.5551 29.1818 29.1488 29.6674C28.9643 29.8886 28.7328 30.0658 28.4712 30.1863C28.2096 30.3067 27.9244 30.3673 27.6363 30.3636Z" fill="white"/>
</svg>
