<svg width="27" height="28" viewBox="0 0 27 28" fill="none" xmlns="http://www.w3.org/2000/svg">
<path fill-rule="evenodd" clip-rule="evenodd" d="M18.655 0.696899C19.3977 0.696925 20.1258 0.903745 20.7576 1.29419C21.3894 1.68464 21.9001 2.24329 22.2323 2.90757L24.0803 6.60223C24.4056 6.4689 24.7256 6.3249 25.0403 6.17023C25.3568 6.01216 25.7231 5.98629 26.0587 6.09832C26.3943 6.21034 26.6716 6.45107 26.8296 6.76757C26.9877 7.08406 27.0136 7.45038 26.9016 7.78594C26.7895 8.12151 26.5488 8.39883 26.2323 8.5569C25.9118 8.69954 25.5896 8.83821 25.2656 8.9729L26.547 11.5369C26.8251 12.0928 26.9698 12.7059 26.9696 13.3276V16.6969C26.9696 17.2597 26.8509 17.8161 26.6211 18.3298C26.3914 18.8436 26.0558 19.3031 25.6363 19.6782V21.3636C25.6363 21.894 25.4256 22.4027 25.0505 22.7778C24.6754 23.1528 24.1667 23.3636 23.6363 23.3636C23.1059 23.3636 22.5972 23.1528 22.2221 22.7778C21.847 22.4027 21.6363 21.894 21.6363 21.3636V20.6969H5.63631V21.3636C5.63631 21.894 5.4256 22.4027 5.05053 22.7778C4.67545 23.1528 4.16674 23.3636 3.63631 23.3636C3.10588 23.3636 2.59717 23.1528 2.2221 22.7778C1.84703 22.4027 1.63631 21.894 1.63631 21.3636V19.6782C0.817645 18.9449 0.302979 17.8809 0.302979 16.6969V13.3262C0.303228 12.7055 0.447933 12.0934 0.725645 11.5382L1.99631 8.99423C1.67453 8.85912 1.35676 8.71379 1.04298 8.55823C0.728087 8.39811 0.488725 8.12066 0.376489 7.7857C0.264253 7.45074 0.288132 7.08509 0.442979 6.76757C0.52119 6.6108 0.629528 6.47099 0.7618 6.35612C0.894073 6.24125 1.04769 6.15357 1.21386 6.0981C1.38003 6.04262 1.55551 6.02044 1.73026 6.03282C1.90502 6.0452 2.07562 6.09189 2.23231 6.17023C2.54787 6.32579 2.86787 6.46979 3.19231 6.60223L5.04031 2.9089C5.37238 2.24437 5.88294 1.68545 6.51478 1.29476C7.14662 0.904068 7.87477 0.697048 8.61764 0.696899H18.655ZM7.63631 12.6969C7.10588 12.6969 6.59717 12.9076 6.2221 13.2827C5.84702 13.6578 5.63631 14.1665 5.63631 14.6969C5.63631 15.2273 5.84702 15.736 6.2221 16.1111C6.59717 16.4862 7.10588 16.6969 7.63631 16.6969C8.16674 16.6969 8.67545 16.4862 9.05052 16.1111C9.4256 15.736 9.63631 15.2273 9.63631 14.6969C9.63631 14.1665 9.4256 13.6578 9.05052 13.2827C8.67545 12.9076 8.16674 12.6969 7.63631 12.6969ZM19.6363 12.6969C19.1059 12.6969 18.5972 12.9076 18.2221 13.2827C17.847 13.6578 17.6363 14.1665 17.6363 14.6969C17.6363 15.2273 17.847 15.736 18.2221 16.1111C18.5972 16.4862 19.1059 16.6969 19.6363 16.6969C20.1667 16.6969 20.6755 16.4862 21.0505 16.1111C21.4256 15.736 21.6363 15.2273 21.6363 14.6969C21.6363 14.1665 21.4256 13.6578 21.0505 13.2827C20.6755 12.9076 20.1667 12.6969 19.6363 12.6969ZM18.655 3.36357H8.61764C8.39819 3.36353 8.18212 3.41767 7.9886 3.52117C7.79509 3.62468 7.63011 3.77434 7.50831 3.9569L7.42564 4.1009L5.73231 7.4849C7.79631 8.10357 10.5776 8.6969 13.6363 8.6969C16.4923 8.6969 19.1043 8.17956 21.1163 7.60756L21.539 7.4849L19.847 4.1009C19.7489 3.90465 19.6038 3.73566 19.4247 3.6089C19.2456 3.48214 19.038 3.40153 18.8203 3.37423L18.6563 3.36357H18.655Z" fill="white"/>
</svg>
