<svg width="33" height="33" viewBox="0 0 33 33" fill="none" xmlns="http://www.w3.org/2000/svg">
<g clip-path="url(#clip0_2319_279)">
<path d="M5.24967 20.5104C5.21589 20.4645 5.17167 20.4272 5.12068 20.4017C5.06968 20.3762 5.01335 20.3632 4.95634 20.3637C4.89865 20.3659 4.84252 20.383 4.79344 20.4134C4.74436 20.4438 4.70401 20.4864 4.67634 20.5371L1.47634 26.0571C1.3558 26.2726 1.29748 26.5173 1.30789 26.7641C1.31829 27.0108 1.397 27.2498 1.53525 27.4544C1.6735 27.659 1.86586 27.8212 2.09088 27.9229C2.3159 28.0246 2.56474 28.0618 2.80967 28.0304L5.99634 27.4971L7.103 30.5504C7.19052 30.7871 7.34339 30.9941 7.54387 31.1473C7.74434 31.3005 7.98419 31.3937 8.23553 31.4161C8.48688 31.4384 8.73941 31.389 8.96377 31.2735C9.18813 31.158 9.37512 30.9813 9.503 30.7637L12.1697 26.3104C12.193 26.2674 12.2052 26.2193 12.2052 26.1704C12.2052 26.1215 12.193 26.0734 12.1697 26.0304C12.153 25.9844 12.1265 25.9427 12.0919 25.9081C12.0574 25.8736 12.0156 25.847 11.9697 25.8304C9.21576 24.826 6.85915 22.9604 5.24967 20.5104ZM31.7963 26.0571L28.6363 20.4971C28.608 20.448 28.5672 20.4073 28.518 20.3792C28.4688 20.3511 28.413 20.3366 28.3563 20.3371C28.301 20.3352 28.246 20.3477 28.197 20.3734C28.1479 20.3991 28.1063 20.4371 28.0763 20.4837C26.453 22.9402 24.0831 24.8099 21.3163 25.8171C21.226 25.8549 21.1542 25.9267 21.1163 26.0171C21.093 26.06 21.0808 26.1082 21.0808 26.1571C21.0808 26.206 21.093 26.2541 21.1163 26.2971L23.783 30.7771C23.912 30.9942 24.1 31.1703 24.3251 31.2848C24.5503 31.3992 24.8033 31.4474 25.0548 31.4237C25.3062 31.3999 25.5458 31.3052 25.7455 31.1506C25.9452 30.996 26.097 30.7879 26.183 30.5504L27.2897 27.4971L30.4763 28.0304C30.7276 28.0766 30.9868 28.0496 31.2232 27.9527C31.4596 27.8558 31.6631 27.693 31.8097 27.4837C31.9428 27.2691 32.0122 27.021 32.0099 26.7685C32.0075 26.5159 31.9335 26.2692 31.7963 26.0571ZM28.2763 12.9771C28.2763 10.6685 27.5914 8.4118 26.3083 6.49265C25.0252 4.5735 23.2015 3.07818 21.0681 2.19594C18.9348 1.31371 16.5876 1.08423 14.3238 1.53656C12.06 1.98889 9.9812 3.10268 8.35066 4.73696C6.72011 6.37124 5.61108 8.45254 5.16393 10.7174C4.71679 12.9823 4.95164 15.3289 5.83875 17.4602C6.72586 19.5915 8.22536 21.4118 10.1474 22.6905C12.0695 23.9693 14.3278 24.649 16.6363 24.6437C19.7259 24.6367 22.6865 23.4044 24.8687 21.2172C27.0508 19.0301 28.2763 16.0666 28.2763 12.9771ZM21.2763 17.5371C21.3441 17.6907 21.3609 17.862 21.3244 18.0259C21.2878 18.1897 21.1998 18.3376 21.0731 18.4479C20.9465 18.5581 20.7879 18.625 20.6205 18.6386C20.4532 18.6523 20.2858 18.612 20.143 18.5237L16.783 16.6304C16.7312 16.6046 16.6742 16.5911 16.6163 16.5911C16.5585 16.5911 16.5014 16.6046 16.4497 16.6304L13.0897 18.5237C12.9468 18.612 12.7795 18.6523 12.6121 18.6386C12.4448 18.625 12.2862 18.5581 12.1596 18.4479C12.0329 18.3376 11.9449 18.1897 11.9083 18.0259C11.8717 17.862 11.8886 17.6907 11.9563 17.5371L13.2897 14.3904C13.3162 14.3275 13.3227 14.2579 13.3084 14.1911C13.2941 14.1244 13.2596 14.0636 13.2097 14.0171L10.783 11.5904C10.6561 11.4916 10.5645 11.3545 10.5218 11.1995C10.4791 11.0444 10.4876 10.8797 10.546 10.7299C10.6045 10.5801 10.7097 10.4531 10.8461 10.3679C10.9825 10.2827 11.1427 10.2439 11.303 10.2571H14.1297C14.1933 10.2585 14.2559 10.2416 14.3103 10.2085C14.3646 10.1755 14.4084 10.1275 14.4363 10.0704L15.903 7.0304C15.9731 6.90246 16.0763 6.79573 16.2018 6.72137C16.3273 6.64702 16.4705 6.60779 16.6163 6.60779C16.7622 6.60779 16.9054 6.64702 17.0309 6.72137C17.1564 6.79573 17.2596 6.90246 17.3297 7.0304L18.7963 10.0571C18.822 10.1131 18.8634 10.1606 18.9154 10.1937C18.9675 10.2268 19.028 10.2442 19.0897 10.2437H21.9697C22.1311 10.2271 22.2936 10.2635 22.4325 10.3475C22.5714 10.4315 22.6791 10.5585 22.7394 10.7092C22.7997 10.8599 22.8092 11.0261 22.7666 11.1827C22.7239 11.3393 22.6314 11.4778 22.503 11.5771L19.9697 14.0171C19.9235 14.0661 19.8926 14.1275 19.8808 14.1938C19.8689 14.2601 19.8766 14.3284 19.903 14.3904L21.2763 17.5371Z" fill="white"/>
</g>
<defs>
<clipPath id="clip0_2319_279">
<rect width="32" height="32" fill="white" transform="translate(0.636353 0.363647)"/>
</clipPath>
</defs>
</svg>
