<svg width="33" height="33" viewBox="0 0 33 33" fill="none" xmlns="http://www.w3.org/2000/svg">
<g clip-path="url(#clip0_2319_287)">
<path fill-rule="evenodd" clip-rule="evenodd" d="M16.6067 3.79221C15.6511 3.77496 14.7016 3.9463 13.8124 4.29643C12.9232 4.64656 12.1117 5.16861 11.4245 5.83269C10.7373 6.49678 10.1878 7.28987 9.80739 8.16657C9.42702 9.04328 9.22327 9.98639 9.2078 10.9419V20.9351C9.2078 21.5413 8.96698 22.1227 8.53833 22.5513C8.10967 22.98 7.52829 23.2208 6.92208 23.2208H4.06494C3.15563 23.2208 2.28356 22.8596 1.64057 22.2166C0.997591 21.5736 0.636368 20.7015 0.636368 19.7922L0.636368 15.2208C0.636368 14.3115 0.997591 13.4394 1.64057 12.7964C2.28356 12.1534 3.15563 11.7922 4.06494 11.7922H5.77923V10.9008C5.80008 9.49597 6.09747 8.10902 6.65441 6.81915C7.21135 5.52928 8.01693 4.36176 9.02514 3.38327C10.0333 2.40477 11.2244 1.63447 12.5304 1.11636C13.8363 0.598248 15.2316 0.342472 16.6364 0.363641C18.0412 0.342472 19.4364 0.598248 20.7423 1.11636C22.0483 1.63447 23.2394 2.40477 24.2476 3.38327C25.2558 4.36176 26.0614 5.52928 26.6183 6.81915C27.1753 8.10902 27.4727 9.49597 27.4935 10.9008V11.7922H29.2078C30.1171 11.7922 30.9892 12.1534 31.6322 12.7964C32.2751 13.4394 32.6364 14.3115 32.6364 15.2208V19.7922C32.6364 20.7015 32.2751 21.5736 31.6322 22.2166C30.9892 22.8596 30.1171 23.2208 29.2078 23.2208H27.4935V24.3636C27.4938 25.9082 26.9254 27.3989 25.8967 28.5511C24.868 29.7033 23.4511 30.4364 21.9164 30.6105C21.6183 31.1426 21.1837 31.5856 20.6574 31.8938C20.131 32.202 19.532 32.3642 18.9221 32.3636H15.4935C14.5842 32.3636 13.7121 32.0024 13.0691 31.3594C12.4262 30.7165 12.0649 29.8444 12.0649 28.9351C12.0649 28.0258 12.4262 27.1537 13.0691 26.5107C13.7121 25.8677 14.5842 25.5065 15.4935 25.5065H18.9221C20.1609 25.5065 21.2467 26.1625 21.8478 27.1476C22.4778 27.0028 23.0401 26.6487 23.4428 26.143C23.8455 25.6374 24.0648 25.0101 24.0649 24.3636V10.9396C24.0493 9.97918 23.8434 9.03136 23.4591 8.15096C23.0749 7.27056 22.52 6.47506 21.8265 5.81043C21.1329 5.1458 20.3145 4.62523 19.4186 4.27881C18.5226 3.9324 17.5669 3.76701 16.6067 3.79221Z" fill="white"/>
</g>
<defs>
<clipPath id="clip0_2319_287">
<rect width="32" height="32" fill="white" transform="translate(0.636368 0.363647)"/>
</clipPath>
</defs>
</svg>
