<svg width="33" height="33" viewBox="0 0 33 33" fill="none" xmlns="http://www.w3.org/2000/svg">
<path fill-rule="evenodd" clip-rule="evenodd" d="M19.6363 3.69698C19.6363 3.60858 19.6012 3.52379 19.5387 3.46128C19.4762 3.39877 19.3914 3.36365 19.303 3.36365H9.96964C8.99718 3.36365 8.06455 3.74996 7.37692 4.43759C6.68929 5.12522 6.30298 6.05785 6.30298 7.03031V25.697C6.30298 26.6694 6.68929 27.6021 7.37692 28.2897C8.06455 28.9773 8.99718 29.3636 9.96964 29.3636H23.303C24.2754 29.3636 25.2081 28.9773 25.8957 28.2897C26.5833 27.6021 26.9696 26.6694 26.9696 25.697V12.5596C26.9696 12.4712 26.9345 12.3865 26.872 12.3239C26.8095 12.2614 26.7247 12.2263 26.6363 12.2263H20.6363C20.3711 12.2263 20.1167 12.121 19.9292 11.9334C19.7417 11.7459 19.6363 11.4915 19.6363 11.2263V3.69698ZM20.6363 16.697C20.9015 16.697 21.1559 16.8023 21.3434 16.9899C21.531 17.1774 21.6363 17.4318 21.6363 17.697C21.6363 17.9622 21.531 18.2166 21.3434 18.4041C21.1559 18.5916 20.9015 18.697 20.6363 18.697H12.6363C12.3711 18.697 12.1167 18.5916 11.9292 18.4041C11.7417 18.2166 11.6363 17.9622 11.6363 17.697C11.6363 17.4318 11.7417 17.1774 11.9292 16.9899C12.1167 16.8023 12.3711 16.697 12.6363 16.697H20.6363ZM20.6363 22.0303C20.9015 22.0303 21.1559 22.1357 21.3434 22.3232C21.531 22.5107 21.6363 22.7651 21.6363 23.0303C21.6363 23.2955 21.531 23.5499 21.3434 23.7374C21.1559 23.925 20.9015 24.0303 20.6363 24.0303H12.6363C12.3711 24.0303 12.1167 23.925 11.9292 23.7374C11.7417 23.5499 11.6363 23.2955 11.6363 23.0303C11.6363 22.7651 11.7417 22.5107 11.9292 22.3232C12.1167 22.1357 12.3711 22.0303 12.6363 22.0303H20.6363Z" fill="white"/>
<path d="M21.6364 4.12896C21.6364 3.88363 21.8937 3.72763 22.0844 3.88096C22.2461 4.01163 22.3897 4.16363 22.515 4.33696L26.5324 9.93296C26.623 10.061 26.5244 10.2263 26.367 10.2263H21.9697C21.8813 10.2263 21.7965 10.1912 21.734 10.1287C21.6715 10.0662 21.6364 9.98137 21.6364 9.89296V4.12896Z" fill="white"/>
</svg>
