<svg width="33" height="33" viewBox="0 0 33 33" fill="none" xmlns="http://www.w3.org/2000/svg">
<path d="M12.7164 2.93694C10.1964 2.92361 7.74302 5.35028 8.86302 8.36361H4.63635C3.92911 8.36361 3.25083 8.64456 2.75073 9.14466C2.25064 9.64476 1.96968 10.323 1.96968 11.0303V13.6969C1.96968 14.0506 2.11016 14.3897 2.36021 14.6398C2.61026 14.8898 2.9494 15.0303 3.30302 15.0303H15.303V11.0303H17.9697V15.0303H29.9697C30.3233 15.0303 30.6624 14.8898 30.9125 14.6398C31.1625 14.3897 31.303 14.0506 31.303 13.6969V11.0303C31.303 10.323 31.0221 9.64476 30.522 9.14466C30.0219 8.64456 29.3436 8.36361 28.6363 8.36361H24.4097C25.9697 4.00361 20.103 0.923611 17.3963 4.68361L16.6364 5.69694L15.8764 4.65694C15.0364 3.47028 13.8764 2.95028 12.7164 2.93694ZM12.6364 5.69694C13.823 5.69694 14.423 7.13694 13.583 7.97694C12.743 8.81694 11.303 8.21694 11.303 7.03028C11.303 6.67666 11.4435 6.33752 11.6935 6.08747C11.9436 5.83742 12.2827 5.69694 12.6364 5.69694ZM20.6364 5.69694C21.823 5.69694 22.423 7.13694 21.583 7.97694C20.743 8.81694 19.303 8.21694 19.303 7.03028C19.303 6.67666 19.4435 6.33752 19.6935 6.08747C19.9436 5.83742 20.2827 5.69694 20.6364 5.69694ZM3.30302 16.3636V27.0303C3.30302 27.7375 3.58397 28.4158 4.08407 28.9159C4.58416 29.416 5.26244 29.6969 5.96968 29.6969H27.303C28.0103 29.6969 28.6885 29.416 29.1886 28.9159C29.6887 28.4158 29.9697 27.7375 29.9697 27.0303V16.3636H17.9697V27.0303H15.303V16.3636H3.30302Z" fill="white"/>
</svg>
